<?xml version="1.0" encoding="UTF-8"?>
<svg version="1.1" xmlns="http://www.w3.org/2000/svg" width="1954" height="401">
<path d="M0 0 C45.17522324 -0.1209091 45.17522324 -0.1209091 64.234375 -0.14648438 C77.34834346 -0.16422415 90.46225372 -0.18497767 103.57617188 -0.22631836 C113.13071921 -0.25642377 122.68521892 -0.27562263 132.23981237 -0.28226548 C137.28874458 -0.28614231 142.33754069 -0.29511241 147.38642883 -0.31719017 C174.51459759 -0.43106889 200.87854339 -0.28701002 227 8 C227.69528809 8.22026855 228.39057617 8.44053711 229.10693359 8.66748047 C252.93151519 16.43967873 274.14776801 30.99872043 286.62890625 53.203125 C298.72714443 77.88215217 300.94078577 107.09630796 292.05053711 133.23657227 C285.39775477 151.38592587 272.83008455 171.14373822 255 180 C254.67 180.66 254.34 181.32 254 182 C254.82242187 182.08507812 255.64484375 182.17015625 256.4921875 182.2578125 C269.30038249 184.96778694 280.14362536 193.78495598 289 203 C289.66257812 203.65484375 290.32515625 204.3096875 291.0078125 204.984375 C299.94047767 214.35766491 305.39473798 226.73664661 309 239 C309.3196875 240.05445313 309.639375 241.10890625 309.96875 242.1953125 C316.79484262 269.43647843 312.19333744 299.86446018 298.6875 324.25 C294.99937901 330.29916975 290.68579915 335.69787051 286 341 C285.45988281 341.62390625 284.91976563 342.2478125 284.36328125 342.890625 C262.01802673 366.98072307 225.54461674 376.99885756 194 380 C193.24110977 380.08141235 192.48221954 380.16282471 191.70033264 380.2467041 C179.50838308 381.38670101 167.26454459 381.18425168 155.03125 381.203125 C153.79065323 381.20595238 152.55005646 381.20877975 151.27186584 381.21169281 C145.3863068 381.22508247 139.50076334 381.23500625 133.61519003 381.2388947 C126.87164204 381.24337795 120.12829647 381.2609639 113.38480997 381.2898953 C107.49924445 381.31425244 101.61374562 381.32184519 95.72813416 381.32357025 C93.243636 381.32658039 90.75913836 381.33455291 88.27467346 381.34775543 C54.32918251 381.51536813 54.32918251 381.51536813 44 372 C35.76516881 362.87834084 34.53746022 351.13525859 34.63923645 339.30670166 C34.63667318 338.19388942 34.6341099 337.08107719 34.63146895 335.93454337 C34.62656422 332.24039011 34.64296939 328.54665408 34.65942383 324.85253906 C34.66027082 322.19069506 34.65992536 319.52887589 34.65809631 316.86703491 C34.65652989 311.15409349 34.66587266 305.44125555 34.68280983 299.72834015 C34.70728146 291.4686321 34.71501341 283.20897364 34.7187738 274.94923326 C34.72532554 261.54555429 34.74525187 248.14193037 34.77368164 234.73828125 C34.80125539 221.72461216 34.8224727 208.71095807 34.83520508 195.69726562 C34.83599325 194.8939295 34.83678142 194.09059338 34.83759347 193.26291373 C34.84150883 189.2324622 34.8452999 185.20201056 34.84902918 181.17155886 C34.88008527 147.78099768 34.93371678 114.39050947 35 81 C23.45 81 11.9 81 0 81 C0 54.27 0 27.54 0 0 Z M131 81 C131 102.78 131 124.56 131 147 C141.6115625 147.0928125 141.6115625 147.0928125 152.4375 147.1875 C154.65267334 147.21481201 156.86784668 147.24212402 159.15014648 147.27026367 C160.93212338 147.27903643 162.71410636 147.28667849 164.49609375 147.29296875 C165.85208679 147.3159906 165.85208679 147.3159906 167.23547363 147.33947754 C175.25760775 147.34273724 182.83149325 145.69848656 189.30078125 140.70703125 C197.52319074 132.44681757 200.02199005 123.79182689 200.3125 112.5625 C200.16594774 103.33886691 198.34785222 95.89983937 192 89 C184.31409831 81.92897045 175.38935788 80.53935586 165.27734375 80.70703125 C163.96401062 80.71156311 163.96401062 80.71156311 162.62414551 80.71618652 C159.39514145 80.73172471 156.1663072 80.773607 152.9375 80.8125 C142.0784375 80.9053125 142.0784375 80.9053125 131 81 Z M131 222 C130.93044374 231.04047403 130.87716026 240.08085573 130.84456348 249.12153912 C130.82891747 253.31964772 130.8076988 257.51757304 130.77368164 261.71557617 C130.74104998 265.76802684 130.72313898 269.82030138 130.71536827 273.87287331 C130.70983157 275.41782211 130.69901966 276.96276143 130.68280983 278.50763512 C130.66098434 280.67416477 130.65803512 282.83996963 130.65942383 285.0065918 C130.65276199 286.23903122 130.64610016 287.47147064 130.63923645 288.74125671 C131.13828733 293.24913643 132.62797979 295.71353953 135.90611267 298.7872467 C138.31440931 300.18210193 139.73519549 300.38476542 142.50219727 300.40405273 C143.38734512 300.41673691 144.27249298 300.42942108 145.1844635 300.44248962 C146.13550461 300.43955399 147.08654572 300.43661835 148.06640625 300.43359375 C149.55031105 300.44145653 149.55031105 300.44145653 151.06419373 300.44947815 C153.15972965 300.45590039 155.25530161 300.45455876 157.35083008 300.44604492 C160.52687641 300.43759478 163.7010872 300.46619686 166.87695312 300.49804688 C168.9192703 300.49966074 170.96159062 300.49907783 173.00390625 300.49609375 C173.94077774 300.50732773 174.87764923 300.51856171 175.84291077 300.53013611 C186.14499438 300.42360838 195.462476 297.13994032 203 290 C211.10088941 281.44801698 214.10453932 270.60386491 214 259 C213.33705934 248.15316243 209.72623638 238.15845456 201.8125 230.5 C191.62393268 222.24966182 179.47479154 221.83676813 166.9375 221.90234375 C165.3896582 221.90446617 165.3896582 221.90446617 163.81054688 221.90663147 C160.54033411 221.91219358 157.2701918 221.92473898 154 221.9375 C151.77213641 221.9425199 149.54427174 221.94708195 147.31640625 221.95117188 C141.87758045 221.96215058 136.43879526 221.97885062 131 222 Z " fill="#00414F" transform="translate(1642,12)"/>
<path d="M0 0 C0.91052628 -0.00979385 1.82105255 -0.01958771 2.75917053 -0.02967834 C58.42880231 -0.50478973 111.39457833 10.84354174 154.26171875 48.23828125 C153.68234572 52.35281176 151.47961075 54.84238948 148.94921875 58.05078125 C148.50553955 58.61700195 148.06186035 59.18322266 147.60473633 59.76660156 C143.75387921 64.66562494 139.8413013 69.51648678 135.93408203 74.37060547 C132.15344273 79.0817161 128.47495908 83.86356648 124.82421875 88.67578125 C119.34738835 95.89233996 113.6878462 102.94226442 107.94140625 109.9453125 C105.98546243 112.33285271 104.08286499 114.74519484 102.26171875 117.23828125 C98.42279373 116.58932012 95.75185428 114.77693513 92.51171875 112.67578125 C63.12203597 94.17628745 27.18846165 82.95563734 -7.5390625 90.19921875 C-33.23016307 96.19718746 -55.43646235 111.52397694 -69.56445312 133.78222656 C-80.72647937 152.10572982 -85.14861733 172.23800066 -85.05078125 193.48828125 C-85.0458667 194.75953857 -85.04095215 196.0307959 -85.03588867 197.34057617 C-84.91630837 206.96403082 -84.13439603 215.92435121 -81.73828125 225.23828125 C-81.57199219 225.89505859 -81.40570312 226.55183594 -81.234375 227.22851562 C-74.42725827 253.37288619 -59.13961301 276.20487361 -35.72509766 290.12011719 C-8.8087986 305.26839068 22.88580653 307.57012552 52.43310547 299.65673828 C67.68828012 295.32625863 83.86893822 288.63106178 95.26171875 277.23828125 C95.38889148 274.28964833 95.44693441 271.37485857 95.44921875 268.42578125 C95.46146484 267.60529297 95.47371094 266.78480469 95.48632812 265.93945312 C95.48826172 265.14474609 95.49019531 264.35003906 95.4921875 263.53125 C95.49629639 262.80446045 95.50040527 262.0776709 95.50463867 261.32885742 C95.21531992 258.83897151 94.65188325 257.3272362 93.26171875 255.23828125 C83.97612657 250.59548516 72.63621329 252.62252179 62.26171875 252.23828125 C62.26171875 225.50828125 62.26171875 198.77828125 62.26171875 171.23828125 C83.82243203 171.15806363 83.82243203 171.15806363 93.0546875 171.140625 C99.3397156 171.12869682 105.62468509 171.11462705 111.90966797 171.08740234 C116.98009506 171.06557766 122.05045925 171.05369239 127.12092972 171.04852676 C129.04968887 171.04484823 130.9784448 171.03766522 132.90717697 171.02682114 C162.02624695 170.86970122 162.02624695 170.86970122 172.33984375 180.09765625 C183.75994881 192.477434 182.56024928 209.51790149 182.48876953 225.35107422 C182.48820405 227.12651564 182.48852464 228.90195753 182.48965454 230.67739868 C182.49022372 235.45331877 182.47854051 240.22913652 182.46450663 245.00503302 C182.45192611 250.01247469 182.45082303 255.01991923 182.44845581 260.02737427 C182.44226242 269.49007689 182.42588083 278.95273279 182.40575683 288.41541493 C182.37913004 301.21620398 182.36840787 314.01700598 182.3567524 326.81781578 C182.3379985 346.95800587 182.29813861 367.09809741 182.26171875 387.23828125 C155.53171875 387.23828125 128.80171875 387.23828125 101.26171875 387.23828125 C100.93171875 378.98828125 100.60171875 370.73828125 100.26171875 362.23828125 C98.28171875 363.55828125 96.30171875 364.87828125 94.26171875 366.23828125 C55.97718943 391.12663343 7.37913332 399.78237498 -37.40869141 390.73876953 C-70.60576276 383.60672213 -101.8090764 369.66661406 -126.27587891 345.66113281 C-127.79766399 344.18050452 -129.34950166 342.73673111 -130.90625 341.29296875 C-161.37597728 312.54975278 -177.15168404 271.82158236 -183.73828125 231.23828125 C-183.86960449 230.45308105 -184.00092773 229.66788086 -184.13623047 228.85888672 C-191.97162115 179.63768775 -182.48887032 123.63847711 -153.265625 82.65234375 C-152.42732659 81.51126282 -151.58482196 80.37326087 -150.73828125 79.23828125 C-150.30016113 78.64756836 -149.86204102 78.05685547 -149.41064453 77.44824219 C-140.93520029 66.12526842 -131.76500014 55.16285269 -120.73828125 46.23828125 C-119.75730469 45.41972656 -118.77632812 44.60117187 -117.765625 43.7578125 C-85.21616109 17.03016497 -42.27561647 0.37735117 0 0 Z " fill="#00414F" transform="translate(1429.73828125,5.76171875)"/>
<path d="M0 0 C0.88679443 -0.00428009 1.77358887 -0.00856018 2.68725586 -0.01296997 C5.58061684 -0.02302424 8.47381223 -0.02301122 11.3671875 -0.01953125 C12.84128082 -0.01812637 12.84128082 -0.01812637 14.34515381 -0.01669312 C58.52205011 0.07506898 101.51589215 5.58816033 136.2421875 35.16796875 C137.56630295 36.18014267 138.8954122 37.18614695 140.2421875 38.16796875 C140.79003906 37.63429687 141.33789062 37.100625 141.90234375 36.55078125 C176.29372853 4.22847165 222.17077603 -0.0747291 267.3046875 -0.01953125 C268.79361511 -0.01812637 268.79361511 -0.01812637 270.31262207 -0.01669312 C306.20734966 0.05664548 341.02504144 3.39294336 372.8359375 21.34765625 C375.52799087 22.78629945 377.31546366 23.66972352 380.2421875 24.16796875 C382.35725633 23.21435801 382.35725633 23.21435801 384.4921875 21.66796875 C414.20662025 2.95567291 450.64166518 0.01593797 484.890625 0 C486.55807521 -0.00322872 488.22552517 -0.00659387 489.89297485 -0.01008606 C493.37055108 -0.01602709 496.84810266 -0.01793137 500.32568359 -0.01733398 C503.83550202 -0.01725306 507.34518899 -0.02415025 510.85498047 -0.0378418 C551.62524744 -0.19437416 591.7762341 0.6728881 628.2421875 21.16796875 C629.23476563 21.72097656 630.22734375 22.27398437 631.25 22.84375 C638.80429827 27.35265452 644.94681003 33.09394773 651.2421875 39.16796875 C651.96277344 39.82539063 652.68335938 40.4828125 653.42578125 41.16015625 C683.12226813 69.00434717 688.64482893 113.04359622 689.91059875 151.50018311 C690.56670112 173.62449073 690.42928044 195.77074337 690.42749023 217.90234375 C690.42739739 223.97585863 690.43763638 230.04927122 690.4532339 236.1227634 C690.46785066 242.02761759 690.47147995 247.93244495 690.47088051 253.83731842 C690.47206011 256.33007418 690.47648078 258.8228306 690.48421288 261.31557465 C690.49395157 264.76742563 690.49116331 268.21904415 690.48510742 271.67089844 C690.49072693 272.69609589 690.49634644 273.72129333 690.50213623 274.77755737 C690.4958445 276.18060623 690.4958445 276.18060623 690.48942566 277.61199951 C690.49024281 278.83059221 690.49024281 278.83059221 690.49107647 280.07380295 C690.2421875 282.16796875 690.2421875 282.16796875 688.2421875 285.16796875 C685.7968359 285.53990555 685.7968359 285.53990555 682.65550232 285.53546143 C681.46780243 285.54103058 680.28010254 285.54659973 679.05641174 285.55233765 C677.74671921 285.54312286 676.43702667 285.53390808 675.08764648 285.52441406 C673.69982779 285.52520458 672.31200931 285.52730074 670.92419434 285.53060913 C667.14946753 285.53575345 663.37501226 285.522188 659.60032916 285.50508213 C655.65698569 285.49007639 651.71364618 285.4912209 647.77027893 285.49041748 C641.14831895 285.48672223 634.52646247 285.47174109 627.90454102 285.44921875 C619.39402943 285.42033272 610.8836012 285.40999499 602.37304592 285.40553665 C595.06938249 285.40156197 587.76573731 285.38905967 580.46208692 285.37518978 C578.10786242 285.3710843 575.75363857 285.36816199 573.39941216 285.36539459 C569.70668673 285.36051332 566.01401225 285.35032988 562.32131195 285.33595657 C560.31169449 285.32924961 558.30206262 285.32742674 556.29243469 285.32571411 C555.10755463 285.32000397 553.92267456 285.31429382 552.70188904 285.30841064 C551.66562598 285.30543598 550.62936293 285.30246132 549.56169796 285.29939651 C547.2421875 285.16796875 547.2421875 285.16796875 546.2421875 284.16796875 C546.13855958 282.63979866 546.10422975 281.10687512 546.09742737 279.57521057 C546.09052887 278.58173615 546.08363037 277.58826172 546.07652283 276.56468201 C546.07390945 275.46511673 546.07129608 274.36555145 546.06860352 273.23266602 C546.0619165 272.08125122 546.05522949 270.92983643 546.04833984 269.74353027 C546.03424389 267.23026673 546.02236451 264.71699003 546.01239204 262.20370674 C545.99600293 258.21225618 545.97296437 254.22087687 545.94749451 250.22947693 C545.87636756 238.87561064 545.81697678 227.52169569 545.76538086 216.16772461 C545.73683634 209.90305781 545.70131165 203.63846628 545.65872711 197.3738789 C545.63658282 194.0656623 545.61912118 190.75752658 545.60827827 187.44925117 C546.79384651 154.42299895 546.79384651 154.42299895 534.28125 125.09765625 C522.64043705 114.08125472 504.4449243 110.12833676 488.80224609 110.17529297 C473.47197622 110.91406295 458.16436879 114.40955024 446.3671875 124.66796875 C442.24372189 129.51910476 439.72234206 133.94535701 438.0546875 140.10546875 C437.73113281 141.26949219 437.40757812 142.43351563 437.07421875 143.6328125 C435.24445852 151.40714587 435.08627601 158.80710845 435.06860352 166.77270508 C435.0619165 168.02872528 435.05522949 169.28474548 435.04833984 170.5788269 C435.03432111 173.29830497 435.02198835 176.01773121 435.01239204 178.73722267 C434.99687766 183.03560473 434.97293327 187.33391463 434.94749451 191.63224792 C434.87644107 203.85040736 434.81635635 216.06860596 434.76538086 228.28686523 C434.73711411 235.04437164 434.70176467 241.80180404 434.65872711 248.55923289 C434.63192435 252.83463153 434.61403929 257.10994662 434.60268986 261.38541281 C434.59145305 264.66039339 434.56732513 267.93528294 434.54516602 271.21020508 C434.54457687 272.39826248 434.54398773 273.58631989 434.54338074 274.81037903 C434.53366241 275.88843811 434.52394409 276.96649719 434.51393127 278.07722473 C434.50969934 279.01757977 434.5054674 279.95793482 434.50110722 280.92678547 C434.2421875 283.16796875 434.2421875 283.16796875 432.2421875 285.16796875 C430.33061981 285.41965103 430.33061981 285.41965103 427.95300293 285.42193604 C427.05282944 285.42757568 426.15265594 285.43321533 425.22520447 285.43902588 C424.23500809 285.43497742 423.24481171 285.43092896 422.22460938 285.42675781 C421.18389786 285.43026245 420.14318634 285.43376709 419.07093811 285.43737793 C415.61753749 285.44620833 412.16434034 285.44034142 408.7109375 285.43359375 C406.31962037 285.43494002 403.9283035 285.43688023 401.5369873 285.43939209 C396.5199117 285.44234513 391.5029072 285.4380399 386.48583984 285.42871094 C380.04251191 285.41731636 373.59935057 285.42387487 367.15602875 285.43585587 C362.21651953 285.44306959 357.27705006 285.44078878 352.33753967 285.43560028 C349.96118653 285.43426243 347.58482982 285.43591619 345.20848083 285.44055939 C341.89214464 285.44561657 338.5760814 285.43792564 335.25976562 285.42675781 C333.77447105 285.43283051 333.77447105 285.43283051 332.25917053 285.43902588 C331.35899704 285.43338623 330.45882355 285.42774658 329.53137207 285.42193604 C328.7467585 285.42118198 327.96214493 285.42042793 327.15375519 285.41965103 C325.2421875 285.16796875 325.2421875 285.16796875 323.2421875 283.16796875 C322.99050522 280.76565933 322.99050522 280.76565933 322.98822021 277.68463135 C322.98258057 276.51886566 322.97694092 275.35309998 322.97113037 274.15200806 C322.97720306 272.22293106 322.97720306 272.22293106 322.98339844 270.25488281 C322.980689 268.89128431 322.97712833 267.52768727 322.97277832 266.16409302 C322.96362918 262.44794055 322.96721344 258.73189871 322.97353649 255.01574421 C322.97860395 251.11024492 322.97390106 247.20475504 322.97076416 243.29925537 C322.96711807 236.71836661 322.97193142 230.13752259 322.98144531 223.55664062 C322.99224079 216.00324036 322.98887253 208.44994882 322.9777925 200.89655137 C322.96862896 194.38410983 322.96748071 187.87170053 322.97266984 181.3592546 C322.97575203 177.4830586 322.97630639 173.60691306 322.96959686 169.73072052 C322.91275878 131.69466627 322.91275878 131.69466627 326.2421875 113.16796875 C274.21323614 106.0689725 274.21323614 106.0689725 226.171875 122.45703125 C214.54147826 132.76900245 213.49318974 148.54984733 212.42741776 163.04014587 C211.81723119 173.34383788 211.89821403 183.6781793 211.86328125 193.99609375 C211.84706729 196.60927936 211.82988337 199.2224591 211.81178284 201.83563232 C211.77062333 207.95005308 211.73796429 214.06448192 211.70930868 220.17897296 C211.65465492 231.8304947 211.58721884 243.4819214 211.51136971 255.13332367 C211.48851895 258.95632632 211.47227591 262.77931783 211.45664978 266.60235596 C211.44325644 268.92012668 211.42964283 271.23789615 211.41577148 273.55566406 C211.41315811 274.62246399 211.41054474 275.68926392 211.40785217 276.78839111 C211.40095367 277.7522876 211.39405518 278.71618408 211.38694763 279.70928955 C211.38309272 280.55126514 211.3792378 281.39324074 211.37526608 282.26073074 C211.2421875 284.16796875 211.2421875 284.16796875 210.2421875 285.16796875 C208.42222244 285.26658913 206.59839184 285.29429009 204.77575684 285.29495239 C203.58943161 285.29777222 202.40310638 285.30059204 201.18083191 285.30349731 C199.8675441 285.30147308 198.55425629 285.29944885 197.20117188 285.29736328 C195.81350153 285.2987173 194.42583154 285.30049723 193.03816223 285.30267334 C189.25934029 285.30724763 185.48054554 285.30545813 181.7017231 285.30229425 C177.75569712 285.29977063 173.80967353 285.3021082 169.86364746 285.30368042 C163.23575419 285.30550211 156.60787205 285.30309583 149.97998047 285.29833984 C142.30635547 285.29289722 134.63275703 285.29465988 126.95913267 285.30016625 C120.38250357 285.3046974 113.80588249 285.30534792 107.22925234 285.30272758 C103.29615627 285.30116482 99.3630727 285.30097102 95.42997742 285.30426407 C91.73317401 285.30714281 88.036405 285.30516704 84.33960533 285.29936981 C82.32758507 285.29740659 80.31556192 285.3003961 78.30354309 285.30349731 C77.11721786 285.30067749 75.93089264 285.29785767 74.70861816 285.29495239 C73.67105629 285.29457537 72.63349442 285.29419834 71.56449127 285.29380989 C69.2421875 285.16796875 69.2421875 285.16796875 68.2421875 284.16796875 C68.13871951 282.69724221 68.10423718 281.22159931 68.09742737 279.74725342 C68.09052887 278.79177109 68.08363037 277.83628876 68.07652283 276.85185242 C68.07390945 275.79440323 68.07129608 274.73695404 68.06860352 273.64746094 C68.0619165 272.5398793 68.05522949 271.43229767 68.04833984 270.29115295 C68.03424259 267.87284211 68.02236363 265.45451759 68.01239204 263.03618622 C67.99599173 259.19092501 67.97274432 255.34576197 67.94749451 251.50054932 C67.87676163 240.56210224 67.81709833 229.62361151 67.76538086 218.68505859 C67.73368441 211.9988867 67.69189701 205.31283326 67.64518547 198.62674713 C67.6293283 196.09307039 67.61693324 193.55936923 67.60827827 191.02565765 C68.97946014 155.54546203 68.97946014 155.54546203 55.2421875 124.16796875 C39.9313804 110.62379324 16.95069258 109.85181589 -2.41943359 109.63378906 C-3.81282959 109.60430176 -3.81282959 109.60430176 -5.234375 109.57421875 C-6.06018066 109.56712891 -6.88598633 109.56003906 -7.73681641 109.55273438 C-8.40374512 109.42576172 -9.07067383 109.29878906 -9.7578125 109.16796875 C-11.81845467 106.07700549 -12.0076014 105.44580607 -12.00505066 101.95507812 C-12.00924515 101.0970459 -12.01343964 100.23901367 -12.01776123 99.35498047 C-12.01214172 98.4167041 -12.00652222 97.47842773 -12.00073242 96.51171875 C-12.00263077 95.52123535 -12.00452911 94.53075195 -12.00648499 93.51025391 C-12.01019591 90.2294122 -11.99948379 86.94879086 -11.98828125 83.66796875 C-11.98708949 81.39257839 -11.98663628 79.11718753 -11.9868927 76.84179688 C-11.98532727 72.07028123 -11.97703311 67.29884054 -11.96362305 62.52734375 C-11.94663318 56.40366598 -11.94280869 50.28007065 -11.94356823 44.15637207 C-11.94329661 39.45702321 -11.93781664 34.75769246 -11.93056679 30.05834961 C-11.92737919 27.80005022 -11.9254125 25.54174878 -11.92467308 23.28344727 C-11.9225105 20.13033537 -11.91376794 16.97731175 -11.90307617 13.82421875 C-11.90352936 12.88594238 -11.90398254 11.94766602 -11.90444946 10.98095703 C-11.89805199 9.69390869 -11.89805199 9.69390869 -11.89152527 8.38085938 C-11.88984942 7.63533813 -11.88817358 6.88981689 -11.88644695 6.1217041 C-11.7578125 4.16796875 -11.7578125 4.16796875 -10.7578125 1.16796875 C-7.41978924 -0.50104288 -3.67065336 0.00523711 0 0 Z M0.2421875 12.16796875 C0.2421875 40.21796875 0.2421875 68.26796875 0.2421875 97.16796875 C19.5471875 97.66296875 19.5471875 97.66296875 39.2421875 98.16796875 C59.25764388 99.44974674 77.63429582 102.1573203 96.51953125 108.8984375 C99.45779459 109.90046855 102.1885637 110.67197897 105.2421875 111.16796875 C105.52191406 109.94464844 105.80164063 108.72132813 106.08984375 107.4609375 C111.11064696 86.10327887 118.2323258 66.97093739 131.2421875 49.16796875 C127.27293817 38.4584847 110.3633084 30.71269641 100.59179688 26.18798828 C68.19691769 12.12462531 35.35631126 12.16796875 0.2421875 12.16796875 Z M222.2421875 14.16796875 C221.36353027 14.296875 220.48487305 14.42578125 219.57958984 14.55859375 C195.87951541 18.21844439 172.35182652 25.82919849 154.2421875 42.16796875 C153.13230469 43.06708984 153.13230469 43.06708984 152 43.984375 C131.58482777 60.90283088 120.73498535 87.60605754 116.2421875 113.16796875 C116.02006592 114.39966797 116.02006592 114.39966797 115.79345703 115.65625 C112.51154333 134.73303577 112.92825425 153.88763715 113.2421875 173.16796875 C115.80352761 169.83791267 117.79589526 166.42513674 119.8046875 162.73046875 C123.9460707 155.30437145 128.89056136 148.75528446 134.2421875 142.16796875 C134.76425781 141.49121094 135.28632813 140.81445312 135.82421875 140.1171875 C155.49701748 115.45532166 189.55651885 103.64246866 219.78077698 99.84938049 C234.42685174 98.26066121 249.00728058 97.85294073 263.73022461 97.90722656 C267.17384477 97.91795055 270.61694228 97.90725182 274.06054688 97.89453125 C287.96401275 97.88611249 301.68418337 98.54307684 315.52053833 99.90197754 C320.09212953 100.3487666 324.66736282 100.75583671 329.2421875 101.16796875 C329.42581345 100.57334335 329.60943939 99.97871796 329.79862976 99.36607361 C337.86638393 73.34093351 348.79449275 52.36553237 368.2421875 33.16796875 C328.35014184 6.97139585 267.90005818 7.46455905 222.2421875 14.16796875 Z M431.9921875 16.35546875 C430.51298828 16.67692871 430.51298828 16.67692871 429.00390625 17.00488281 C409.3118115 21.49595087 390.32362376 29.44872673 375.2421875 43.16796875 C373.79585938 44.47507812 373.79585938 44.47507812 372.3203125 45.80859375 C346.34658094 70.08883635 336.77452451 106.62717074 335.2421875 141.16796875 C334.98466072 151.83070156 335.11222708 162.50421615 335.2421875 173.16796875 C337.46591808 170.27023743 339.36957306 167.30947608 341.1965332 164.14379883 C355.19355486 139.97665657 373.71723852 122.62951145 399.2421875 111.16796875 C400.28632813 110.69617188 401.33046875 110.224375 402.40625 109.73828125 C427.91176024 99.12746175 455.80034282 98.01123968 483.02734375 98 C484.89993819 97.99677315 486.77253239 97.99340811 488.64512634 97.98991394 C492.54882388 97.98397171 496.45249944 97.98206888 500.35620117 97.98266602 C504.30937284 97.98274715 508.26242831 97.97581739 512.21557617 97.9621582 C608.98430539 97.6329867 608.98430539 97.6329867 643.2421875 129.16796875 C644.05300781 129.85117188 644.86382813 130.534375 645.69921875 131.23828125 C659.42225716 143.0008856 669.44388498 157.95367639 677.2421875 174.16796875 C677.5721875 174.16796875 677.9021875 174.16796875 678.2421875 174.16796875 C678.97651642 128.12554575 674.97358651 81.4773977 641.9921875 46.48046875 C606.91628712 12.94029081 557.62983908 11.78786132 512.01806641 11.90722656 C507.62466092 11.9186203 503.23149767 11.9118415 498.83810043 11.90035534 C465.21231697 11.66891962 465.21231697 11.66891962 431.9921875 16.35546875 Z M535.2421875 109.16796875 C535.9846875 109.90917969 536.7271875 110.65039062 537.4921875 111.4140625 C538.3996875 112.32285156 539.3071875 113.23164063 540.2421875 114.16796875 C541.263125 115.17537109 541.263125 115.17537109 542.3046875 116.203125 C560.26111783 134.99221238 557.38579954 165.27555611 557.55859375 189.37890625 C557.5770358 191.52905618 557.59587441 193.67920275 557.6151123 195.8293457 C557.68309197 203.73384699 557.74344293 211.63841241 557.8046875 219.54296875 C557.9490625 237.23921875 558.0934375 254.93546875 558.2421875 273.16796875 C597.8421875 273.16796875 637.4421875 273.16796875 678.2421875 273.16796875 C678.4071875 263.26796875 678.5721875 253.36796875 678.7421875 243.16796875 C678.81501953 240.09742188 678.88785156 237.026875 678.96289062 233.86328125 C679.28231268 210.48403306 673.97456683 190.50631812 662.2421875 170.16796875 C661.90106934 169.57371094 661.55995117 168.97945312 661.20849609 168.3671875 C644.76891714 140.25068358 619.99481279 122.81875141 588.6796875 114.41796875 C571.07608964 109.89860041 553.33649537 108.95647684 535.2421875 109.16796875 Z M61.2421875 112.16796875 C62.0878125 113.05484375 62.9334375 113.94171875 63.8046875 114.85546875 C75.03577496 128.05598861 78.03295532 143.78825658 78.78491211 160.59643555 C78.82673331 161.50904239 78.86855452 162.42164923 78.91164303 163.36191082 C79.38038336 174.34198654 79.47162477 185.32403848 79.55859375 196.3125 C79.57923464 198.54693421 79.60023255 200.78136515 79.62156677 203.01579285 C79.67605263 208.82039696 79.72577731 214.62503183 79.77441406 220.4296875 C79.82517531 226.3834905 79.88057249 232.33725031 79.93554688 238.29101562 C80.04222571 249.91663071 80.14343062 261.54228367 80.2421875 273.16796875 C87.1721875 273.16796875 94.1021875 273.16796875 101.2421875 273.16796875 C101.25249496 271.47826965 101.26280243 269.78857056 101.27342224 268.04766846 C101.37131371 252.09906853 101.47400729 236.150507 101.58152676 220.20196915 C101.63667719 212.00331222 101.6901281 203.80465095 101.73950195 195.60595703 C101.78256779 188.45546125 101.82889996 181.30499516 101.87906605 174.15454555 C101.90548793 170.37256383 101.93033418 166.59058731 101.95126152 162.80857086 C101.97106089 159.23976475 101.9952685 155.6710142 102.02267838 152.10225868 C102.03629551 150.18659496 102.04539932 148.27090077 102.05430603 146.35520935 C102.11659034 138.91559832 102.50861054 131.57191457 103.2421875 124.16796875 C91.13677606 117.49764 75.18070192 111.77445943 61.2421875 112.16796875 Z M162.2421875 132.16796875 C161.41847656 132.77125 160.59476563 133.37453125 159.74609375 133.99609375 C136.66393033 151.71282449 119.1067999 179.46177564 113.2421875 208.16796875 C113.15495931 210.30682478 113.1245136 212.44823722 113.12866211 214.58886719 C113.12878296 215.90806152 113.12890381 217.22725586 113.12902832 218.58642578 C113.13406339 219.98339892 113.13922994 221.38037159 113.14453125 222.77734375 C113.14553833 224.05109863 113.14654541 225.32485352 113.14758301 226.63720703 C113.15281686 231.39747009 113.16677812 236.15772032 113.1796875 240.91796875 C113.2003125 251.56046875 113.2209375 262.20296875 113.2421875 273.16796875 C141.6221875 273.16796875 170.0021875 273.16796875 199.2421875 273.16796875 C199.30277344 266.036875 199.36335938 258.90578125 199.42578125 251.55859375 C199.4663459 247.00129706 199.50715467 242.44400511 199.54882812 237.88671875 C199.61473861 230.67645043 199.67981671 223.46618227 199.73950195 216.25585938 C199.78775732 210.43322928 199.84010896 204.61064828 199.89512825 198.78807831 C199.91527884 196.58291623 199.9340312 194.37774085 199.95126152 192.17255402 C200.03548966 181.50450817 200.17809077 170.84812011 200.67993164 160.19042969 C200.7153453 159.40198795 200.75075895 158.61354622 200.78724575 157.80121231 C201.61884883 141.96336372 204.93204441 128.46359183 215.2421875 116.16796875 C216.25025201 114.84072208 217.25280451 113.50919918 218.2421875 112.16796875 C199.5577867 111.20516549 176.9929412 121.3267644 162.2421875 132.16796875 Z M398.2421875 124.16796875 C397.27152344 124.62816406 396.30085938 125.08835937 395.30078125 125.5625 C374.52496491 136.05625294 359.43404885 153.9842178 348.5546875 174.16796875 C348.13985107 174.91780029 347.72501465 175.66763184 347.29760742 176.44018555 C345.81150302 179.30105942 344.52343968 182.20892573 343.2421875 185.16796875 C342.91095886 185.88985382 342.57973022 186.61173889 342.23846436 187.35549927 C334.05070041 205.61425412 334.29301491 222.46857725 334.7421875 242.10546875 C334.9071875 252.35609375 335.0721875 262.60671875 335.2421875 273.16796875 C363.9521875 273.16796875 392.6621875 273.16796875 422.2421875 273.16796875 C422.27957031 264.78648437 422.31695312 256.405 422.35546875 247.76953125 C422.38964148 241.74790046 422.4256438 235.72630211 422.46426487 229.70470047 C422.51391527 221.92587279 422.55940482 214.14709822 422.58862305 206.36816406 C422.61428384 199.54046188 422.65533818 192.71298438 422.70537376 185.88541794 C422.72193157 183.29344764 422.73351428 180.70144015 422.73980141 178.10942459 C422.85906745 133.41847138 422.85906745 133.41847138 438.2421875 115.16796875 C438.9021875 114.17796875 439.5621875 113.18796875 440.2421875 112.16796875 C425.87818166 111.40095873 410.88591845 117.95088558 398.2421875 124.16796875 Z " fill="#00414F" transform="translate(11.7578125,114.83203125)"/>
<path d="M0 0 C1.29288689 -0.00845947 1.29288689 -0.00845947 2.6118927 -0.01708984 C3.55989746 -0.01304138 4.50790222 -0.00899292 5.4846344 -0.00482178 C6.48162857 -0.00832642 7.47862274 -0.01183105 8.50582886 -0.01544189 C11.81857674 -0.02427903 15.13111266 -0.01839905 18.44386292 -0.01165771 C20.74635865 -0.01300475 23.04885411 -0.01494561 25.35134888 -0.01745605 C30.18942458 -0.02041078 35.02742662 -0.01610201 39.86549377 -0.0067749 C46.04562288 0.00456237 52.22557719 -0.00190116 58.40569973 -0.01391983 C63.16800226 -0.02117819 67.93026401 -0.0188313 72.69256783 -0.01366425 C74.96937646 -0.01233573 77.24618887 -0.01394731 79.52299309 -0.01862335 C82.72254461 -0.0237475 85.92182184 -0.01589365 89.12135315 -0.00482178 C90.05113983 -0.00887024 90.98092651 -0.0129187 91.93888855 -0.01708984 C102.17751788 0.04798631 112.82903823 0.98979874 120.82667542 7.94146729 C129.98114565 17.42083521 129.30991678 29.34440245 129.22584534 41.72906494 C129.22499792 43.48421209 129.22547645 45.2393603 129.22717285 46.99450684 C129.22802974 51.73352739 129.21045376 56.4723178 129.18945098 61.21128511 C129.17063294 66.17336628 129.16892971 71.13545335 129.16537476 76.0975647 C129.15606931 85.4825136 129.13147591 94.86735704 129.10132629 104.25225961 C129.06773546 114.94151146 129.05128451 125.63076848 129.03623998 136.32006001 C129.00492498 158.29808786 128.95219378 180.27602091 128.88526917 202.25396729 C131.88654811 202.16622828 134.88513913 202.05925017 137.88526917 201.94146729 C138.72444885 201.91890869 139.56362854 201.8963501 140.42823792 201.87310791 C146.42276464 201.61752731 153.0349883 201.05648988 157.53175354 196.6350708 C158.00065002 195.73679565 158.00065002 195.73679565 158.47901917 194.82037354 C158.86573792 194.11283936 159.25245667 193.40530518 159.65089417 192.67633057 C160.05823792 191.87695068 160.46558167 191.0775708 160.88526917 190.25396729 C161.62003479 188.90987793 161.62003479 188.90987793 162.36964417 187.53863525 C164.06562989 184.43533128 165.72694199 181.31504464 167.38526917 178.19146729 C171.90421057 169.73314909 176.49986081 161.32965881 181.26026917 153.00396729 C187.30235657 142.43479519 193.02217722 131.70428182 198.68165588 120.92681885 C199.01336288 120.29836563 199.34506989 119.66991241 199.68682861 119.02241516 C200.59253539 117.3063581 201.49427905 115.58821104 202.39576721 113.86993408 C203.88526917 111.25396729 203.88526917 111.25396729 205.88526917 109.25396729 C207.79683685 109.002285 207.79683685 109.002285 210.17445374 109 C211.52471397 108.99154053 211.52471397 108.99154053 212.9022522 108.98291016 C213.89244858 108.98695862 214.88264496 108.99100708 215.90284729 108.99517822 C216.94355881 108.99167358 217.98427032 108.98816895 219.05651855 108.98455811 C222.50991917 108.97572771 225.96311632 108.98159462 229.41651917 108.98834229 C231.8078363 108.98699601 234.19915317 108.9850558 236.59046936 108.98254395 C241.60754497 108.9795909 246.62454946 108.98389614 251.64161682 108.9932251 C258.08494476 109.00461967 264.5281061 108.99806117 270.97142792 108.98608017 C275.91093713 108.97886645 280.8504066 108.98114726 285.78991699 108.98633575 C288.16627014 108.9876736 290.54262685 108.98601984 292.91897583 108.98137665 C296.23531202 108.97631946 299.55137527 108.98401039 302.86769104 108.99517822 C304.35298561 108.98910553 304.35298561 108.98910553 305.86828613 108.98291016 C307.21854637 108.99136963 307.21854637 108.99136963 308.59608459 109 C309.38069817 109.00075405 310.16531174 109.0015081 310.97370148 109.002285 C312.88526917 109.25396729 312.88526917 109.25396729 314.88526917 111.25396729 C314.58653975 115.88019218 313.12586299 119.04838432 310.74464417 122.97271729 C310.09278137 124.05851074 309.44091858 125.1443042 308.76930237 126.26300049 C308.05805342 127.42671444 307.34670667 128.5903686 306.63526917 129.75396729 C305.90404568 130.96584887 305.17383296 132.17834086 304.44459534 133.39141846 C302.96641658 135.84853245 301.48395619 138.30297669 299.99806213 140.75543213 C297.02505675 145.66906783 294.11123333 150.6173713 291.19776917 155.56646729 C290.14204163 157.35438246 289.08605313 159.14214357 288.02980042 160.92974854 C287.51240295 161.80582764 286.99500549 162.68190674 286.46192932 163.58453369 C283.2295644 169.05723083 279.99581816 174.52911214 276.76173401 180.00079346 C274.03913798 184.60741283 271.31809259 189.21493498 268.60011292 193.82427979 C266.43261437 197.5000659 264.2603406 201.17296459 262.08448792 204.84381104 C259.94617555 208.45192836 257.82617881 212.06998365 255.71730042 215.69537354 C244.32214281 235.1626976 244.32214281 235.1626976 236.13917542 242.90631104 C234.65820806 244.19120883 234.65820806 244.19120883 234.88526917 246.25396729 C236.34509276 247.47176715 237.80778169 248.68640873 239.28923035 249.87780762 C249.52837134 258.70634782 254.98085698 274.02069478 260.69776917 285.87896729 C262.5260143 289.66860528 264.36758056 293.45133608 266.21730042 297.23052979 C266.62777115 298.09296295 267.03824188 298.95539612 267.46115112 299.84396362 C267.85223557 300.64264862 268.24332001 301.44133362 268.64625549 302.26422119 C269.15180717 303.31460068 269.15180717 303.31460068 269.66757202 304.38619995 C271.44377355 307.11063042 273.63474487 308.78602256 276.67555237 309.92388916 C279.86648251 310.40053677 283.01573386 310.46082912 286.24073792 310.53521729 C286.94297989 310.55362671 287.64522186 310.57203613 288.3687439 310.59100342 C291.36490535 310.66951038 294.36127706 310.73769853 297.35768127 310.80621338 C299.54798483 310.85779447 301.7380871 310.91506638 303.92823792 310.97271729 C305.23816711 311.00301025 306.54809631 311.03330322 307.89772034 311.06451416 C310.88526917 311.25396729 310.88526917 311.25396729 311.88526917 312.25396729 C311.99100244 314.8600881 312.03204992 317.43984499 312.03053284 320.04669189 C312.03389145 320.86292526 312.03725006 321.67915863 312.04071045 322.52012634 C312.05024949 325.23220317 312.05216503 327.94421845 312.05323792 330.65631104 C312.05644843 332.53339158 312.05981234 334.41047187 312.06332397 336.28755188 C312.06932263 340.22777893 312.07116312 344.16798403 312.0705719 348.10821533 C312.07047023 353.16713362 312.08412398 358.22591169 312.10134411 363.28479671 C312.11244078 367.16315869 312.11449183 371.04148652 312.11396217 374.91986275 C312.11514576 376.78545172 312.11958859 378.65104148 312.12729454 380.51661491 C312.1370476 383.12179369 312.13423508 385.72666485 312.12818909 388.33184814 C312.13380859 389.10854858 312.1394281 389.88524902 312.1452179 390.68548584 C312.11358468 396.02565177 312.11358468 396.02565177 309.88526917 398.25396729 C307.24316421 398.45775297 304.70544861 398.53716234 302.06178284 398.52862549 C300.84908722 398.53629189 300.84908722 398.53629189 299.6118927 398.54411316 C296.92559999 398.55806578 294.23956268 398.55704625 291.55323792 398.55474854 C289.68151759 398.55863625 287.80979814 398.56297107 285.93807983 398.56773376 C282.00288547 398.57521094 278.06778075 398.57489672 274.13258362 398.56964111 C269.12065181 398.56388584 264.10909431 398.58067388 259.09722424 398.60398579 C255.22355038 398.61882555 251.34996412 398.61958029 247.47626686 398.61647606 C245.63093139 398.61698552 243.78559052 398.6221518 241.94028282 398.63228798 C214.47038684 398.76449619 214.47038684 398.76449619 203.88526917 390.25396729 C203.3167926 389.81955322 202.74831604 389.38513916 202.16261292 388.93756104 C191.15817147 379.33687522 185.4583992 362.53671252 179.11183167 349.74224854 C175.38738049 342.23517113 171.6006539 334.77050292 167.65431213 327.37750244 C165.23271287 322.83712793 162.87424878 318.27060024 160.55714417 313.67584229 C159.97972473 312.53977539 159.4023053 311.4037085 158.80738831 310.23321533 C157.67485112 308.00241196 156.55121904 305.76705889 155.4377594 303.52667236 C154.91899231 302.50984375 154.40022522 301.49301514 153.86573792 300.44537354 C153.41094055 299.5398877 152.95614319 298.63440186 152.48756409 297.70147705 C150.36146708 294.4538582 147.90728205 291.92101412 144.14691162 290.68049622 C141.15014894 290.11532908 138.17672612 289.90436927 135.13526917 289.69146729 C133.96480042 289.60767822 132.79433167 289.52388916 131.58839417 289.43756104 C130.69636292 289.3769751 129.80433167 289.31638916 128.88526917 289.25396729 C128.88665185 290.08748923 128.88665185 290.08748923 128.88806248 290.93785 C128.91011898 304.44073279 128.92661758 317.94361244 128.93708134 331.44650936 C128.94231087 337.97632961 128.94940978 344.50613691 128.96070862 351.03594971 C128.97153501 357.33177888 128.97754547 363.62759555 128.98014641 369.9234333 C128.98200111 372.33131673 128.98562256 374.73919943 128.99099922 377.14707756 C128.99820636 380.50686015 128.99926025 383.86659038 128.99879456 387.22637939 C129.00238983 388.23266388 129.00598511 389.23894836 129.00968933 390.27572632 C129.00831467 391.18582962 129.00694 392.09593292 129.00552368 393.03361511 C129.00690637 394.22687613 129.00690637 394.22687613 129.00831699 395.44424343 C128.88526917 397.25396729 128.88526917 397.25396729 127.88526917 398.25396729 C124.82145342 398.35995643 121.78005577 398.40074216 118.71559143 398.39923096 C117.7530545 398.40258957 116.79051758 398.40594818 115.79881287 398.40940857 C112.59975412 398.41894979 109.40074753 398.42086325 106.20167542 398.42193604 C103.9882912 398.42514636 101.7749072 398.42851026 99.56152344 398.43202209 C94.91512052 398.43802128 90.26873623 398.43986118 85.62232971 398.43927002 C79.65540785 398.43916834 73.68860483 398.45282299 67.72171116 398.47004223 C63.14850308 398.48113626 58.57532397 398.48319003 54.00210381 398.48266029 C51.80158516 398.48384425 49.60106586 398.48828908 47.40056038 398.49599266 C44.32840164 398.5057405 41.25650397 398.50293521 38.18434143 398.49688721 C37.26737991 398.50250671 36.3504184 398.50812622 35.40567017 398.51391602 C29.1135843 398.48228242 29.1135843 398.48228242 26.88526917 396.25396729 C26.63506281 394.06091607 26.63506281 394.06091607 26.63472939 391.27136421 C26.62973069 390.21089666 26.62473199 389.1504291 26.61958182 388.05782616 C26.62424503 386.88353204 26.62890825 385.70923792 26.63371277 384.49935913 C26.63074263 383.25907263 26.62777249 382.01878612 26.62471235 380.74091518 C26.61837326 377.28700336 26.62099314 373.83330195 26.62723112 370.37940335 C26.63175116 366.65880074 26.62473193 362.93821914 26.618927 359.21762085 C26.61028059 352.76680893 26.60848908 346.31602444 26.61087418 339.86520767 C26.61396609 330.53396478 26.60235318 321.20278279 26.58632438 311.87155519 C26.56034122 296.72770972 26.54033331 281.5838642 26.52687073 266.44000244 C26.52606036 265.5330358 26.52524999 264.62606915 26.52441506 263.69161867 C26.51319274 250.81948594 26.50791249 237.94735753 26.50502793 225.07522057 C26.50482395 224.16886031 26.50461996 223.26250004 26.50440979 222.32867432 C26.50420985 221.42341472 26.50400992 220.51815512 26.50380392 219.58546342 C26.5000739 204.50194229 26.48100812 189.41848709 26.44931543 174.33499897 C26.43037353 165.02525175 26.42445606 155.71567336 26.43513261 146.40591215 C26.44144078 140.02833543 26.43344221 133.65087997 26.41407849 127.27332987 C26.40337102 123.59078723 26.39928757 119.90853881 26.41254997 116.22599792 C26.42676854 112.23801859 26.41032563 108.25050748 26.39079285 104.26254272 C26.3999175 103.09271005 26.40904216 101.92287737 26.41844332 100.71759522 C26.40822913 99.65191217 26.39801494 98.58622912 26.38749123 97.48825264 C26.38705649 96.56737582 26.38662175 95.64649901 26.38617384 94.69771683 C25.72592128 91.47656126 24.42709704 90.27515915 21.88526917 88.25396729 C19.02770521 87.64752416 19.02770521 87.64752416 15.87745667 87.71490479 C14.72632385 87.69170166 13.57519104 87.66849854 12.38917542 87.64459229 C11.19163635 87.63943604 9.99409729 87.63427979 8.76026917 87.62896729 C6.38255998 87.60353724 4.00491855 87.5700977 1.62745667 87.52740479 C0.57413147 87.52144287 -0.47919373 87.51548096 -1.56443787 87.50933838 C-4.11473083 87.25396729 -4.11473083 87.25396729 -6.11473083 85.25396729 C-6.31316698 82.61454242 -6.38747965 80.0800439 -6.3735199 77.43951416 C-6.37702454 76.63288834 -6.38052917 75.82626251 -6.38414001 74.99519348 C-6.39296397 72.32094797 -6.38710589 69.64696563 -6.38035583 66.97271729 C-6.3817023 65.11948597 -6.38364267 63.266255 -6.38615417 61.4130249 C-6.38910634 57.52582441 -6.38480484 53.63871572 -6.37547302 49.75152588 C-6.36407843 44.761001 -6.37063741 39.77069123 -6.38261795 34.78017426 C-6.38983407 30.95241669 -6.38754977 27.12471038 -6.38236237 23.29695129 C-6.38102518 21.45648676 -6.38267598 19.61601763 -6.38732147 17.77555847 C-6.39238265 15.20638646 -6.38468236 12.63756613 -6.3735199 10.06842041 C-6.37756836 9.30264175 -6.38161682 8.5368631 -6.38578796 7.74787903 C-6.34135158 2.24629813 -5.74355454 0.00576842 0 0 Z M5.88526917 12.25396729 C5.88526917 33.37396729 5.88526917 54.49396729 5.88526917 76.25396729 C12.48526917 76.58396729 19.08526917 76.91396729 25.88526917 77.25396729 C31.97992498 80.30129519 34.62624452 81.88531924 36.97723961 88.17564487 C38.39668059 93.4531417 38.1730872 98.83017095 38.16374207 104.25712585 C38.17243067 106.06694391 38.17243067 106.06694391 38.1812948 107.91332394 C38.19532914 111.24963299 38.20052286 114.5857416 38.2019434 117.92206562 C38.20564568 121.52459081 38.22080528 125.12707018 38.23455811 128.72956848 C38.25680877 134.96693375 38.27183523 141.20428266 38.2819252 147.441679 C38.29652401 156.45984958 38.3220642 165.4779632 38.35025649 174.49610031 C38.39570264 189.12818345 38.43232645 203.76027481 38.46339417 218.39239502 C38.49358862 232.60432374 38.52794301 246.81623239 38.56788635 261.02813721 C38.5703479 261.90447484 38.57280945 262.78081248 38.57534559 263.6837058 C38.58772037 268.0801285 38.60017687 272.47655097 38.612674 276.87297332 C38.71620922 313.33328091 38.80379645 349.79360241 38.88526917 386.25396729 C64.95526917 386.25396729 91.02526917 386.25396729 117.88526917 386.25396729 C117.9458551 378.54150635 118.00644104 370.82904541 118.06886292 362.88287354 C118.10933444 358.01112284 118.150096 353.13937807 118.19190979 348.26763916 C118.25832193 340.52669224 118.32363142 332.78574656 118.38258362 325.04473877 C118.4301528 318.80722406 118.48249262 312.56976632 118.53820992 306.33231926 C118.55866733 303.94678087 118.57737466 301.56122684 118.59434319 299.17566109 C118.61831249 295.846969 118.6483769 292.51838572 118.6799469 289.1897583 C118.68570236 288.19282455 118.69145782 287.19589081 118.6973877 286.16874695 C118.70717651 285.2670578 118.71696533 284.36536865 118.72705078 283.43635559 C118.73350333 282.64822259 118.73995588 281.86008959 118.74660397 281.04807377 C118.88526917 279.25396729 118.88526917 279.25396729 119.88526917 278.25396729 C132.33623308 277.24397089 146.33489346 276.80664325 156.88526917 284.25396729 C161.49353434 289.11235212 164.19362568 294.43300437 167.07276917 300.44146729 C170.4558517 307.42135559 173.95611408 314.32300417 177.58839417 321.17584229 C181.19524301 327.98299674 184.70277147 334.83193026 188.13917542 341.72662354 C189.46447575 344.36984301 190.79090491 347.01249382 192.1174469 349.65509033 C193.01113408 351.44295673 193.89973694 353.23337285 194.78346252 355.02618408 C203.47327371 373.80399645 203.47327371 373.80399645 219.71578979 385.47761536 C226.5718128 387.15697214 233.69202215 386.73508817 240.70558167 386.64459229 C242.41764155 386.6371187 244.12971007 386.63143106 245.84178162 386.62744141 C250.31683056 386.6122729 254.79134841 386.5730686 259.26618958 386.52862549 C264.65190152 386.48022967 270.03779247 386.46209684 275.42366028 386.43881226 C283.57789767 386.40021074 291.73097302 386.32349705 299.88526917 386.25396729 C299.88526917 365.13396729 299.88526917 344.01396729 299.88526917 322.25396729 C291.63526917 321.92396729 283.38526917 321.59396729 274.88526917 321.25396729 C262.94538038 316.47801177 259.67517878 311.69929608 254.67823792 300.83599854 C253.91856417 299.23504347 253.1587955 297.63413346 252.39894104 296.03326416 C251.23743287 293.55825883 250.07978012 291.08151378 248.92506409 288.60333252 C238.87951732 265.82577231 238.87951732 265.82577231 219.88526917 251.25396729 C219.40194315 247.48133925 219.21722621 244.01170889 219.88526917 240.25396729 C221.60335847 238.24952976 223.37221918 237.13710919 225.60792542 235.74224854 C233.95866322 230.28490531 238.72417573 220.95976815 243.57228088 212.52642822 C245.5185697 209.15787927 247.50616978 205.8141218 249.49000549 202.46759033 C251.16158822 199.64705802 252.82873255 196.82394619 254.49464417 194.00006104 C257.78897707 188.41652607 261.0867552 182.83503299 264.38526917 177.25396729 C265.46861896 175.42064368 266.55195227 173.58731033 267.63526917 171.75396729 C274.13526916 160.75396729 274.13526916 160.75396729 275.76344299 157.99884033 C276.8364826 156.18276562 277.90924092 154.36652468 278.98170471 152.55010986 C281.84513437 147.70125266 284.71472575 142.8561643 287.59230042 138.01568604 C288.49722229 136.49104736 288.49722229 136.49104736 289.42042542 134.93560791 C290.58662288 132.97101372 291.7545349 131.00743607 292.92433167 129.04498291 C293.44382385 128.16906494 293.96331604 127.29314697 294.49855042 126.39068604 C294.96043762 125.61426758 295.42232483 124.83784912 295.89820862 124.03790283 C296.96595874 122.44793567 296.96595874 122.44793567 296.88526917 121.25396729 C268.83526917 121.25396729 240.78526917 121.25396729 211.88526917 121.25396729 C206.27526917 131.81396729 200.66526917 142.37396729 194.88526917 153.25396729 C188.26026917 165.00396729 188.26026917 165.00396729 185.15480042 170.41802979 C182.66483306 174.80522481 180.2934048 179.24371221 177.95948792 183.71490479 C177.62527832 184.35198364 177.29106873 184.9890625 176.94673157 185.64544678 C175.30994264 188.76593724 173.68583008 191.89175491 172.08399963 195.03033447 C167.63597543 203.53294584 164.20811029 208.30423505 155.06851196 211.63232422 C151.58187774 212.62508691 148.26871674 212.62634159 144.66651917 212.54693604 C143.92317322 212.54269119 143.17982727 212.53844635 142.41395569 212.53407288 C140.07067059 212.5174581 137.7282884 212.47984183 135.38526917 212.44146729 C133.7837192 212.42639807 132.18215558 212.41271361 130.58058167 212.40045166 C126.68180333 212.36761155 122.7836886 212.31595292 118.88526917 212.25396729 C118.88288081 211.3200522 118.88049246 210.38613712 118.87803173 209.42392159 C118.81918728 186.67966635 118.74327386 163.93551662 118.64955425 141.19137764 C118.60462527 130.19239384 118.56520388 119.19344221 118.53883362 108.19439697 C118.51583012 98.60549798 118.48240574 89.01670104 118.4365676 79.42788303 C118.41266719 74.35261396 118.39391754 69.27744576 118.38765526 64.20212173 C118.38159005 59.42013269 118.36153829 54.63840164 118.33099365 49.85650826 C118.32223644 48.10626456 118.31848602 46.35598713 118.320261 44.60572243 C118.84134031 30.37639424 118.84134031 30.37639424 113.61059093 17.62480354 C107.58882149 12.02950897 99.99616874 11.96330965 92.27809143 12.0269165 C91.34072647 12.02662445 90.40336151 12.0263324 89.43759155 12.02603149 C86.35885659 12.02741777 83.28036777 12.04294589 80.20167542 12.05865479 C78.05933769 12.06238741 75.91699825 12.0652332 73.7746582 12.06723022 C68.15061181 12.07484702 62.52666958 12.09447875 56.90266418 12.11663818 C50.14697166 12.14074648 43.39124421 12.14988689 36.63552094 12.1615448 C26.38536468 12.18090424 16.13543676 12.21924057 5.88526917 12.25396729 Z " fill="#00414F" transform="translate(687.1147308349609,-0.25396728515625)"/>
<path d="M0 0 C1.38550301 -0.00503792 1.38550301 -0.00503792 2.79899597 -0.01017761 C5.86275565 -0.01970359 8.92646079 -0.02163144 11.99023438 -0.02270508 C14.11250837 -0.02591611 16.23478214 -0.02928006 18.35705566 -0.03279114 C22.80916864 -0.03878625 27.26126218 -0.04063061 31.71337891 -0.04003906 C37.43029045 -0.03993733 43.14707812 -0.05359978 48.86396027 -0.07081127 C53.24758481 -0.08190488 57.63117913 -0.0839591 62.01481628 -0.08342934 C64.12322925 -0.08461305 66.2316429 -0.08905658 68.34004211 -0.0967617 C71.28277385 -0.10651008 74.22523305 -0.10370423 77.16796875 -0.09765625 C78.04595627 -0.10327576 78.92394379 -0.10889526 79.82853699 -0.11468506 C85.85566805 -0.08305266 85.85566805 -0.08305266 88.08398438 2.14526367 C88.32449341 5.19509888 88.32449341 5.19509888 88.31103516 9.1652832 C88.31132721 9.88733948 88.31161926 10.60939575 88.31192017 11.35333252 C88.31052446 13.74503509 88.2949522 16.13642788 88.27929688 18.52807617 C88.27556759 20.18431427 88.27272022 21.84055457 88.27072144 23.49679565 C88.26307827 27.85998607 88.24342397 32.22304374 88.22131348 36.58618164 C88.20086973 41.03684696 88.19172287 45.4875337 88.18164062 49.93823242 C88.16017867 58.67397049 88.12603456 67.40960057 88.08398438 76.14526367 C88.79364349 76.14082245 89.50330261 76.13638123 90.23446655 76.13180542 C96.91495505 76.09176888 103.59541018 76.06129979 110.27599144 76.04163933 C113.71073897 76.03119197 117.14538755 76.01701562 120.58007812 75.99438477 C124.52668076 75.96854304 128.473243 75.95879875 132.41992188 75.94995117 C133.65640472 75.9396286 134.89288757 75.92930603 136.1668396 75.91867065 C137.3078714 75.91851959 138.4489032 75.91836853 139.62451172 75.91821289 C140.63266937 75.91377167 141.64082703 75.90933044 142.67953491 75.90475464 C145.08398438 76.14526367 145.08398438 76.14526367 147.08398438 78.14526367 C147.28221809 80.63383279 147.35679126 83.01110504 147.34277344 85.50073242 C147.3480304 86.63751938 147.3480304 86.63751938 147.35339355 87.79727173 C147.36221567 90.30919481 147.35636012 92.82083759 147.34960938 95.33276367 C147.35095589 97.07389378 147.35289631 98.81502352 147.35540771 100.55615234 C147.35835963 104.20796279 147.35405921 107.85967551 147.34472656 111.51147461 C147.33333197 116.19933349 147.33989108 120.88696337 147.35187149 125.57481384 C147.3590883 129.17095677 147.35680299 132.76704515 147.35161591 136.3631897 C147.35027891 138.09201077 147.35192886 139.82083675 147.35657501 141.5496521 C147.36163734 143.96316708 147.35393437 146.37630791 147.34277344 148.78979492 C147.3468219 149.50881989 147.35087036 150.22784485 147.3550415 150.96865845 C147.31251334 155.91673471 147.31251334 155.91673471 145.08398438 158.14526367 C142.67953491 158.38577271 142.67953491 158.38577271 139.62451172 158.37231445 C138.48347992 158.37216339 137.34244812 158.37201233 136.1668396 158.37185669 C134.31211533 158.35637283 134.31211533 158.35637283 132.41992188 158.34057617 C131.15757721 158.33774628 129.89523254 158.33491638 128.59463501 158.33200073 C125.23751494 158.32268499 121.88066526 158.30471202 118.52362061 158.28259277 C115.09845315 158.26213918 111.67325779 158.25300007 108.24804688 158.24291992 C101.52661767 158.22082825 94.80531664 158.18732744 88.08398438 158.14526367 C88.14534355 169.83763637 88.22255614 181.52978859 88.31969929 193.22192192 C88.3643211 198.65175756 88.40359522 204.08151957 88.43041992 209.51147461 C88.45653463 214.7571131 88.4969946 220.00246705 88.54717064 225.24792862 C88.56378423 227.24362763 88.57533265 229.2393758 88.58159828 231.23513412 C88.59129952 234.04255363 88.61942991 236.84925413 88.65161133 239.65649414 C88.65017624 240.47145859 88.64874115 241.28642303 88.64726257 242.12608337 C88.77966468 250.35686824 90.6031685 258.79905582 96.08398438 265.14526367 C108.37320727 275.96630507 125.24642968 276.36888554 140.74609375 276.01831055 C141.64779297 276.00735352 142.54949219 275.99639648 143.47851562 275.98510742 C144.69825073 275.95984985 144.69825073 275.95984985 145.94262695 275.93408203 C148.08398438 276.14526367 148.08398438 276.14526367 151.08398438 278.14526367 C151.38086279 280.9154994 151.4829952 283.46258932 151.45629883 286.23510742 C151.45994949 287.07099396 151.46360016 287.90688049 151.46736145 288.76809692 C151.47548838 291.53985716 151.46183925 294.3110367 151.44726562 297.08276367 C151.44674727 299.0032552 151.447264 300.92374727 151.44877625 302.84423828 C151.44868643 306.87272036 151.43823722 310.90100271 151.42016602 314.92944336 C151.39747852 320.1015817 151.3969337 325.27342801 151.40368366 330.44560242 C151.40702002 334.41233938 151.40039984 338.37900937 151.39055443 342.34573364 C151.38669639 344.25318044 151.3855567 346.16063468 151.38714027 348.06808472 C151.38750981 350.73067501 151.37492233 353.39288637 151.35864258 356.05541992 C151.36112 356.84925079 151.36359741 357.64308167 151.3661499 358.46096802 C151.31272512 363.91652293 151.31272512 363.91652293 149.08398438 366.14526367 C112.21970956 374.22647141 62.84242397 367.09638109 30.83398438 346.83276367 C24.7158327 342.83028979 19.32783196 338.2426862 14.08398438 333.14526367 C13.02244141 332.1765332 13.02244141 332.1765332 11.93945312 331.18823242 C6.55370988 326.1320184 2.73971239 320.5427877 -0.91601562 314.14526367 C-1.44195313 313.2300293 -1.96789063 312.31479492 -2.50976562 311.37182617 C-5.58553791 305.64398492 -7.81153412 299.85507198 -9.66601562 293.64526367 C-9.86469238 292.98187988 -10.06336914 292.31849609 -10.26806641 291.63500977 C-13.1011505 281.58690775 -14.21563408 271.64328529 -14.14306641 261.22631836 C-14.14335846 260.10290543 -14.14365051 258.97949249 -14.14395142 257.82203674 C-14.1425716 254.15365544 -14.12707444 250.48548396 -14.11132812 246.81713867 C-14.1075932 244.25596223 -14.10474849 241.69478435 -14.10275269 239.13360596 C-14.09592831 233.10970834 -14.08020783 227.08589911 -14.06005371 221.06203675 C-14.03758796 214.19611963 -14.02667462 207.33019872 -14.01666284 200.4642539 C-13.99583798 186.35788317 -13.96072919 172.25157749 -13.91601562 158.14526367 C-15.44524658 158.16097412 -15.44524658 158.16097412 -17.00537109 158.17700195 C-20.78105164 158.21315095 -24.55671684 158.23614544 -28.33251953 158.25512695 C-29.96796235 158.26519621 -31.60338712 158.27885248 -33.23876953 158.29614258 C-35.58695932 158.32035072 -37.9349115 158.33173725 -40.28320312 158.34057617 C-41.38328201 158.35606003 -41.38328201 158.35606003 -42.50558472 158.37185669 C-44.3106426 158.37225736 -46.11509392 158.26739122 -47.91601562 158.14526367 C-50.37307423 155.68820507 -50.15824901 154.32224958 -50.18707275 150.96865845 C-50.18100006 149.890121 -50.18100006 149.890121 -50.17480469 148.78979492 C-50.17830933 148.03193695 -50.18181396 147.27407898 -50.1854248 146.49325562 C-50.19424692 143.98133253 -50.18839137 141.46968975 -50.18164062 138.95776367 C-50.18298714 137.21663356 -50.18492756 135.47550382 -50.18743896 133.734375 C-50.19039088 130.08256455 -50.18609046 126.43085184 -50.17675781 122.77905273 C-50.16536322 118.09119386 -50.17192233 113.40356397 -50.18390274 108.7157135 C-50.19111955 105.11957057 -50.18883424 101.52348219 -50.18364716 97.92733765 C-50.18231016 96.19851657 -50.18396011 94.46969059 -50.18860626 92.74087524 C-50.19366859 90.32736026 -50.18596562 87.91421944 -50.17480469 85.50073242 C-50.17885315 84.78170746 -50.18290161 84.0626825 -50.18707275 83.3218689 C-50.14454459 78.37379263 -50.14454459 78.37379263 -47.91601562 76.14526367 C-45.19115834 75.9700862 -42.569422 75.91377234 -39.84570312 75.94995117 C-39.0494754 75.95278107 -38.25324768 75.95561096 -37.43289185 75.95852661 C-34.885448 75.96973728 -32.33835352 75.99484305 -29.79101562 76.02026367 C-28.06576028 76.03029235 -26.34049943 76.03941839 -24.61523438 76.04760742 C-20.38202649 76.06967945 -16.14908032 76.10421501 -11.91601562 76.14526367 C-11.91823624 75.24990402 -11.92045685 74.35454437 -11.92274475 73.43205261 C-11.94276869 65.00063764 -11.95800052 56.56923063 -11.9678278 48.13779736 C-11.9730499 43.80295486 -11.98013538 39.46813198 -11.99145508 35.13330078 C-12.0023078 30.95119852 -12.00829754 26.76911515 -12.01089287 22.58699989 C-12.0127428 20.99018367 -12.01635518 19.39336849 -12.02174568 17.79656029 C-12.02898773 15.56275561 -12.03000522 13.32902934 -12.02954102 11.09521484 C-12.03176163 9.82280441 -12.03398224 8.55039398 -12.03627014 7.23942566 C-11.91601562 4.14526367 -11.91601562 4.14526367 -10.91601562 1.14526367 C-7.54066631 -0.54241098 -3.71275514 -0.00191639 0 0 Z M0.08398438 12.14526367 C-0.20542841 36.45367369 -0.20542841 36.45367369 -0.48413086 60.76220703 C-0.54309082 65.45495605 -0.54309082 65.45495605 -0.57191467 67.64918518 C-0.59118349 69.18745293 -0.60849406 70.72574594 -0.62428284 72.26405334 C-0.64852114 74.58904131 -0.67889904 76.91387432 -0.71069336 79.23876953 C-0.72623764 80.55115097 -0.74178192 81.86353241 -0.75779724 83.21568298 C-0.91601562 86.14526367 -0.91601562 86.14526367 -1.91601562 87.14526367 C-4.6528021 87.30535531 -7.36789481 87.40480788 -10.10742188 87.46166992 C-10.83376831 87.48032104 -11.56011475 87.49897217 -12.30847168 87.51818848 C-15.03169143 87.58668377 -17.75511896 87.64670608 -20.47851562 87.70776367 C-29.60507813 87.92432617 -29.60507813 87.92432617 -38.91601562 88.14526367 C-38.91601562 107.28526367 -38.91601562 126.42526367 -38.91601562 146.14526367 C-27.03601562 146.47526367 -15.15601563 146.80526367 -2.91601562 147.14526367 C-2.92648926 150.57022217 -2.93696289 153.99518066 -2.94775391 157.52392578 C-2.981033 168.89527721 -3.00314301 180.26663556 -3.01963997 191.63802242 C-3.02990095 198.52612245 -3.04386067 205.41417595 -3.06689453 212.30224609 C-3.08915155 218.96124974 -3.10061602 225.6201953 -3.10577011 232.27923775 C-3.10943878 234.80787474 -3.11660199 237.33650938 -3.12747574 239.86512566 C-3.24453498 268.23909633 -2.14600283 298.01365767 18.08398438 320.14526367 C18.87289063 321.02569336 19.66179687 321.90612305 20.47460938 322.81323242 C39.69156323 343.18207971 66.96708497 351.61622686 94.08398438 355.14526367 C94.79699707 355.24242676 95.51000977 355.33958984 96.24462891 355.43969727 C103.75441839 356.33579675 111.27688158 356.29710924 118.82763672 356.27563477 C121.10716195 356.2702085 123.38649586 356.27564365 125.66601562 356.28198242 C127.11783898 356.28132272 128.56966221 356.2800438 130.02148438 356.27807617 C131.32988281 356.27694824 132.63828125 356.27582031 133.98632812 356.2746582 C136.99416364 356.36079683 136.99416364 356.36079683 139.08398438 355.14526367 C139.08398438 333.03526367 139.08398438 310.92526367 139.08398438 288.14526367 C132.81398438 287.81526367 126.54398438 287.48526367 120.08398438 287.14526367 C107.62164713 284.65279622 93.28515943 281.26022822 85.13476562 270.59448242 C84.27431641 269.22743164 84.27431641 269.22743164 83.39648438 267.83276367 C82.81511719 266.92913086 82.23375 266.02549805 81.63476562 265.09448242 C78.0391831 258.2565358 77.78177836 252.02255232 77.76513672 244.43652344 C77.75509109 243.38211563 77.74504547 242.32770782 77.73469543 241.24134827 C77.70392519 237.77312745 77.68684523 234.30498361 77.66992188 230.83666992 C77.6512053 228.42528117 77.63163152 226.01389894 77.61123657 223.6025238 C77.55996126 217.26835983 77.52031077 210.93417464 77.48309326 204.59991455 C77.43597503 196.99312335 77.37439683 189.38643708 77.31524658 181.77973175 C77.22709045 170.23495152 77.1572855 158.69019083 77.08398438 147.14526367 C96.22398437 146.81526367 115.36398437 146.48526367 135.08398438 146.14526367 C135.08398438 127.00526367 135.08398438 107.86526367 135.08398438 88.14526367 C115.94398438 87.81526367 96.80398438 87.48526367 77.08398438 87.14526367 C77.08398438 62.39526367 77.08398438 37.64526367 77.08398438 12.14526367 C51.67398437 12.14526367 26.26398438 12.14526367 0.08398438 12.14526367 Z " fill="#00414F" transform="translate(1055.916015625,32.854736328125)"/>
</svg>
