<svg width="22" height="22" viewBox="0 0 22 22" fill="none" xmlns="http://www.w3.org/2000/svg">
<path d="M12.8333 2.08057V5.8669C12.8333 6.38028 12.8333 6.63697 12.9332 6.83305C13.0211 7.00553 13.1613 7.14577 13.3338 7.23365C13.5299 7.33356 13.7866 7.33356 14.3 7.33356H18.0863M14.6666 11.9168H7.33329M14.6666 15.5835H7.33329M9.16663 8.25016H7.33329M12.8333 1.8335H8.06663C6.52648 1.8335 5.75641 1.8335 5.16815 2.13323C4.65071 2.39688 4.23001 2.81758 3.96636 3.33502C3.66663 3.92328 3.66663 4.69335 3.66663 6.2335V15.7668C3.66663 17.307 3.66663 18.077 3.96636 18.6653C4.23001 19.1827 4.65071 19.6034 5.16815 19.8671C5.75641 20.1668 6.52648 20.1668 8.06663 20.1668H13.9333C15.4734 20.1668 16.2435 20.1668 16.8318 19.8671C17.3492 19.6034 17.7699 19.1827 18.0336 18.6653C18.3333 18.077 18.3333 17.307 18.3333 15.7668V7.3335L12.8333 1.8335Z" stroke="white" stroke-width="1.3" stroke-linecap="round" stroke-linejoin="round"/>
</svg>
