<svg width="15" height="15" viewBox="0 0 18 18" fill="none" xmlns="http://www.w3.org/2000/svg">
    <path
        d="M5.7 0.75H2.21667C1.70329 0.75 1.44659 0.75 1.25051 0.849911C1.07803 0.937795 0.937795 1.07803 0.849911 1.25051C0.75 1.44659 0.75 1.70329 0.75 2.21667V5.7C0.75 6.21338 0.75 6.47007 0.849911 6.66616C0.937795 6.83864 1.07803 6.97887 1.25051 7.06676C1.44659 7.16667 1.70329 7.16667 2.21667 7.16667H5.7C6.21338 7.16667 6.47007 7.16667 6.66616 7.06676C6.83864 6.97887 6.97887 6.83864 7.06676 6.66616C7.16667 6.47007 7.16667 6.21338 7.16667 5.7V2.21667C7.16667 1.70329 7.16667 1.44659 7.06676 1.25051C6.97887 1.07803 6.83864 0.937795 6.66616 0.849911C6.47007 0.75 6.21338 0.75 5.7 0.75Z"
        stroke="white" stroke-width="1.3" stroke-linecap="round" stroke-linejoin="round" />
    <path
        d="M15.7833 0.75H12.3C11.7866 0.75 11.5299 0.75 11.3338 0.849911C11.1614 0.937795 11.0211 1.07803 10.9332 1.25051C10.8333 1.44659 10.8333 1.70329 10.8333 2.21667V5.7C10.8333 6.21338 10.8333 6.47007 10.9332 6.66616C11.0211 6.83864 11.1614 6.97887 11.3338 7.06676C11.5299 7.16667 11.7866 7.16667 12.3 7.16667H15.7833C16.2967 7.16667 16.5534 7.16667 16.7495 7.06676C16.922 6.97887 17.0622 6.83864 17.1501 6.66616C17.25 6.47007 17.25 6.21338 17.25 5.7V2.21667C17.25 1.70329 17.25 1.44659 17.1501 1.25051C17.0622 1.07803 16.922 0.937795 16.7495 0.849911C16.5534 0.75 16.2967 0.75 15.7833 0.75Z"
        stroke="white" stroke-width="1.3" stroke-linecap="round" stroke-linejoin="round" />
    <path
        d="M15.7833 10.8333H12.3C11.7866 10.8333 11.5299 10.8333 11.3338 10.9332C11.1614 11.0211 11.0211 11.1614 10.9332 11.3338C10.8333 11.5299 10.8333 11.7866 10.8333 12.3V15.7833C10.8333 16.2967 10.8333 16.5534 10.9332 16.7495C11.0211 16.922 11.1614 17.0622 11.3338 17.1501C11.5299 17.25 11.7866 17.25 12.3 17.25H15.7833C16.2967 17.25 16.5534 17.25 16.7495 17.1501C16.922 17.0622 17.0622 16.922 17.1501 16.7495C17.25 16.5534 17.25 16.2967 17.25 15.7833V12.3C17.25 11.7866 17.25 11.5299 17.1501 11.3338C17.0622 11.1614 16.922 11.0211 16.7495 10.9332C16.5534 10.8333 16.2967 10.8333 15.7833 10.8333Z"
        stroke="white" stroke-width="1.3" stroke-linecap="round" stroke-linejoin="round" />
    <path
        d="M5.7 10.8333H2.21667C1.70329 10.8333 1.44659 10.8333 1.25051 10.9332C1.07803 11.0211 0.937795 11.1614 0.849911 11.3338C0.75 11.5299 0.75 11.7866 0.75 12.3V15.7833C0.75 16.2967 0.75 16.5534 0.849911 16.7495C0.937795 16.922 1.07803 17.0622 1.25051 17.1501C1.44659 17.25 1.70329 17.25 2.21667 17.25H5.7C6.21338 17.25 6.47007 17.25 6.66616 17.1501C6.83864 17.0622 6.97887 16.922 7.06676 16.7495C7.16667 16.5534 7.16667 16.2967 7.16667 15.7833V12.3C7.16667 11.7866 7.16667 11.5299 7.06676 11.3338C6.97887 11.1614 6.83864 11.0211 6.66616 10.9332C6.47007 10.8333 6.21338 10.8333 5.7 10.8333Z"
        stroke="white" stroke-width="1.3" stroke-linecap="round" stroke-linejoin="round" />
</svg>