<svg width="22" height="22" viewBox="0 0 22 22" fill="none" xmlns="http://www.w3.org/2000/svg">
<g clip-path="url(#clip0_796_36)">
<path d="M13.7271 6.41667C13.7363 6.2645 13.75 6.11325 13.75 5.95833C13.75 5.80342 13.7353 5.65217 13.7271 5.5H16.9583C17.3864 5.5 17.7824 5.62558 18.1262 5.83C17.7623 5.97758 17.4341 6.19025 17.1298 6.43317C17.0729 6.42583 17.0179 6.41575 16.9592 6.41575H13.728L13.7271 6.41667ZM18.3333 21.0833H3.66667V13.4062C3.35133 13.3091 3.047 13.1881 2.75 13.0533V22H19.25V15.917L18.3333 16.8337V21.0833ZM5.95833 11.9167C2.673 11.9167 0 9.24367 0 5.95833C0 2.673 2.673 0 5.95833 0C9.24367 0 11.9167 2.673 11.9167 5.95833C11.9167 9.24367 9.24367 11.9167 5.95833 11.9167ZM5.95833 11C8.73858 11 11 8.73767 11 5.95833C11 3.179 8.73858 0.916667 5.95833 0.916667C3.17808 0.916667 0.916667 3.179 0.916667 5.95833C0.916667 8.73767 3.17808 11 5.95833 11ZM21.3281 11.2457L14.2404 18.3333H10.9991V15.0929L18.0868 8.00525C18.9512 7.139 20.4628 7.139 21.3272 8.00525C22.2209 8.899 22.2218 10.3528 21.3281 11.2457ZM20.68 8.65333C20.1612 8.1345 19.2546 8.1345 18.7358 8.65333L11.9167 15.4724V17.4167H13.8618L20.6809 10.5976C21.2172 10.0613 21.2163 9.18958 20.68 8.65333Z" fill="white"/>
<path d="M5.95833 2.75V9.16667M2.75 5.95833H5.95833H9.16667" stroke="white" stroke-width="1.83333"/>
</g>
<defs>
<clipPath id="clip0_796_36">
<rect width="22" height="22" fill="white"/>
</clipPath>
</defs>
</svg>
