<svg xmlns="http://www.w3.org/2000/svg" xmlns:xlink="http://www.w3.org/1999/xlink" viewBox="0,0,256,256" width="24px" height="24px"><g fill="#ffffff" fill-rule="nonzero" stroke="none" stroke-width="1" stroke-linecap="butt" stroke-linejoin="miter" stroke-miterlimit="10" stroke-dasharray="" stroke-dashoffset="0" font-family="none" font-weight="none" font-size="none" text-anchor="none" style="mix-blend-mode: normal"><g transform="scale(10.66667,10.66667)"><path d="M12,2c-0.828,0 -1.5,0.672 -1.5,1.5v0.69531c-2.58682,0.66678 -4.5,3.00949 -4.5,5.80469v6l-2,2v1h6.26953c-0.17609,0.30389 -0.26905,0.64878 -0.26953,1c0,1.10457 0.89543,2 2,2c1.10457,0 2,-0.89543 2,-2c-0.00107,-0.35139 -0.09471,-0.6963 -0.27148,-1h6.27148v-1l-2,-2v-6c0,-2.7952 -1.91318,-5.1379 -4.5,-5.80469v-0.69531c0,-0.828 -0.672,-1.5 -1.5,-1.5zM12,6c2.206,0 4,1.794 4,4v6v0.82813l0.17188,0.17188h-8.34375l0.17188,-0.17187v-0.82812v-6c0,-2.206 1.794,-4 4,-4z"></path></g></g></svg>