<svg width="18.5" height="19" viewBox="0 0 24 24" fill="none" xmlns="http://www.w3.org/2000/svg">
<g clip-path="url(#clip0_798_36)">
<path d="M15.991 6.182C16.395 6.606 17.159 6.6 17.56 6.182L20.793 3H12.741L15.991 6.182ZM16.856 5.473C16.816 5.511 16.732 5.509 16.696 5.473L15.192 4.001H18.352L16.856 5.473ZM7 17H22V18H7V17ZM2 19H5V16H2V19ZM3 17H4V18H3V17ZM7 12H22V13H7V12ZM2 14H5V11H2V14ZM3 12H4V13H3V12ZM7 22H22V23H7V22ZM2 24H5V21H2V24ZM3 22H4V23H3V22ZM21.5 0H2.5C1.122 0 0 1.122 0 2.5V9H24V2.5C24 1.122 22.879 0 21.5 0ZM23 8H1V2.5C1 1.673 1.673 1 2.5 1H21.5C22.327 1 23 1.673 23 2.5V8Z" fill="white"/>
</g>
<defs>
<clipPath id="clip0_798_36">
<rect width="24" height="24" fill="white"/>
</clipPath>
</defs>
</svg>
