<?xml version="1.0" encoding="UTF-8" standalone="no"?>
<!DOCTYPE svg PUBLIC "-//W3C//DTD SVG 1.1//EN"
 "http://www.w3.org/Graphics/SVG/1.1/DTD/svg11.dtd">
<!-- Generated by graphviz version 2.47.0 (20210316.0004)
 -->
<!-- Title: dependencies Pages: 1 -->
<svg width="5783pt" height="284pt"
 viewBox="0.00 0.00 5783.00 284.00" xmlns="http://www.w3.org/2000/svg" xmlns:xlink="http://www.w3.org/1999/xlink">
<g id="graph0" class="graph" transform="scale(1 1) rotate(0) translate(4 280)">
<title>dependencies</title>
<polygon fill="white" stroke="transparent" points="-4,4 -4,-280 5779,-280 5779,4 -4,4"/>
<text text-anchor="start" x="2866.51" y="-42.4" font-family="Times-12" font-weight="bold" font-size="14.00">Legend</text>
<polygon fill="#ffffb3" stroke="transparent" points="2653.5,-10 2653.5,-30 2673.5,-30 2673.5,-10 2653.5,-10"/>
<text text-anchor="start" x="2677.13" y="-15.4" font-family="Times-12" font-size="14.00"> &#160;Declarations</text>
<polygon fill="#8dd3c7" stroke="transparent" points="2766.5,-10 2766.5,-30 2786.5,-30 2786.5,-10 2766.5,-10"/>
<text text-anchor="start" x="2790.23" y="-15.4" font-family="Times-12" font-size="14.00"> &#160;Module</text>
<polygon fill="#80b1d3" stroke="transparent" points="2852.5,-10 2852.5,-30 2872.5,-30 2872.5,-10 2852.5,-10"/>
<text text-anchor="start" x="2876.28" y="-15.4" font-family="Times-12" font-size="14.00"> &#160;Bootstrap</text>
<polygon fill="#fdb462" stroke="transparent" points="2949.5,-10 2949.5,-30 2969.5,-30 2969.5,-10 2949.5,-10"/>
<text text-anchor="start" x="2973.17" y="-15.4" font-family="Times-12" font-size="14.00"> &#160;Providers</text>
<polygon fill="#fb8072" stroke="transparent" points="3045.5,-10 3045.5,-30 3065.5,-30 3065.5,-10 3045.5,-10"/>
<text text-anchor="start" x="3069.23" y="-15.4" font-family="Times-12" font-size="14.00"> &#160;Exports</text>
<g id="clust1" class="cluster">
<title>cluster_AppModule</title>
<polygon fill="none" stroke="black" stroke-dasharray="1,5" points="8,-70 8,-268 5767,-268 5767,-70 8,-70"/>
</g>
<g id="clust36" class="cluster">
<title>cluster_AppModule_bootstrap</title>
<polygon fill="none" stroke="black" points="2747,-208 2747,-260 2871,-260 2871,-208 2747,-208"/>
</g>
<g id="clust34" class="cluster">
<title>cluster_AppModule_imports</title>
<polygon fill="none" stroke="black" points="5221,-78 5221,-130 5759,-130 5759,-78 5221,-78"/>
</g>
<g id="clust2" class="cluster">
<title>cluster_AppModule_declarations</title>
<polygon fill="none" stroke="black" points="16,-78 16,-130 5213,-130 5213,-78 16,-78"/>
</g>
<!-- AgencyBoardComponent -->
<g id="node1" class="node">
<title>AgencyBoardComponent</title>
<polygon fill="#ffffb3" stroke="black" points="5204.58,-122 5045.42,-122 5045.42,-86 5204.58,-86 5204.58,-122"/>
<text text-anchor="middle" x="5125" y="-99.8" font-family="Times,serif" font-size="14.00">AgencyBoardComponent</text>
</g>
<!-- AppModule -->
<g id="node32" class="node">
<title>AppModule</title>
<polygon fill="#8dd3c7" stroke="black" points="2850.66,-187 2847.66,-191 2826.66,-191 2823.66,-187 2767.34,-187 2767.34,-151 2850.66,-151 2850.66,-187"/>
<text text-anchor="middle" x="2809" y="-164.8" font-family="Times,serif" font-size="14.00">AppModule</text>
</g>
<!-- AgencyBoardComponent&#45;&gt;AppModule -->
<g id="edge1" class="edge">
<title>AgencyBoardComponent&#45;&gt;AppModule</title>
<path fill="none" stroke="black" d="M5125,-122.16C5125,-144.35 5125,-179 5125,-179 5125,-179 2860.68,-179 2860.68,-179"/>
<polygon fill="black" stroke="black" points="2860.68,-175.5 2850.68,-179 2860.68,-182.5 2860.68,-175.5"/>
</g>
<!-- AgencyBoardRequestComponent -->
<g id="node2" class="node">
<title>AgencyBoardRequestComponent</title>
<polygon fill="#ffffb3" stroke="black" points="5027.18,-122 4822.82,-122 4822.82,-86 5027.18,-86 5027.18,-122"/>
<text text-anchor="middle" x="4925" y="-99.8" font-family="Times,serif" font-size="14.00">AgencyBoardRequestComponent</text>
</g>
<!-- AgencyBoardRequestComponent&#45;&gt;AppModule -->
<g id="edge2" class="edge">
<title>AgencyBoardRequestComponent&#45;&gt;AppModule</title>
<path fill="none" stroke="black" d="M4925,-122.04C4925,-143.66 4925,-177 4925,-177 4925,-177 2860.79,-177 2860.79,-177"/>
<polygon fill="black" stroke="black" points="2860.79,-173.5 2850.79,-177 2860.79,-180.5 2860.79,-173.5"/>
</g>
<!-- AppComponent -->
<g id="node3" class="node">
<title>AppComponent</title>
<polygon fill="#ffffb3" stroke="black" points="4804.94,-122 4699.06,-122 4699.06,-86 4804.94,-86 4804.94,-122"/>
<text text-anchor="middle" x="4752" y="-99.8" font-family="Times,serif" font-size="14.00">AppComponent</text>
</g>
<!-- AppComponent&#45;&gt;AppModule -->
<g id="edge3" class="edge">
<title>AppComponent&#45;&gt;AppModule</title>
<path fill="none" stroke="black" d="M4752,-122.28C4752,-143.32 4752,-175 4752,-175 4752,-175 2860.93,-175 2860.93,-175"/>
<polygon fill="black" stroke="black" points="2860.93,-171.5 2850.93,-175 2860.93,-178.5 2860.93,-171.5"/>
</g>
<!-- BtnFinalizeComponent -->
<g id="node4" class="node">
<title>BtnFinalizeComponent</title>
<polygon fill="#ffffb3" stroke="black" points="4681.16,-122 4534.84,-122 4534.84,-86 4681.16,-86 4681.16,-122"/>
<text text-anchor="middle" x="4608" y="-99.8" font-family="Times,serif" font-size="14.00">BtnFinalizeComponent</text>
</g>
<!-- BtnFinalizeComponent&#45;&gt;AppModule -->
<g id="edge4" class="edge">
<title>BtnFinalizeComponent&#45;&gt;AppModule</title>
<path fill="none" stroke="black" d="M4608,-122.13C4608,-142.57 4608,-173 4608,-173 4608,-173 2860.82,-173 2860.82,-173"/>
<polygon fill="black" stroke="black" points="2860.82,-169.5 2850.82,-173 2860.82,-176.5 2860.82,-169.5"/>
</g>
<!-- CapitalizeDirective -->
<g id="node5" class="node">
<title>CapitalizeDirective</title>
<polygon fill="#ffffb3" stroke="black" points="4516.34,-122 4391.66,-122 4391.66,-86 4516.34,-86 4516.34,-122"/>
<text text-anchor="middle" x="4454" y="-99.8" font-family="Times,serif" font-size="14.00">CapitalizeDirective</text>
</g>
<!-- CapitalizeDirective&#45;&gt;AppModule -->
<g id="edge5" class="edge">
<title>CapitalizeDirective&#45;&gt;AppModule</title>
<path fill="none" stroke="black" d="M4454,-122.31C4454,-142.15 4454,-171 4454,-171 4454,-171 2860.9,-171 2860.9,-171"/>
<polygon fill="black" stroke="black" points="2860.9,-167.5 2850.9,-171 2860.9,-174.5 2860.9,-167.5"/>
</g>
<!-- CheckRequestsComponent -->
<g id="node6" class="node">
<title>CheckRequestsComponent</title>
<polygon fill="#ffffb3" stroke="black" points="4373.64,-122 4206.36,-122 4206.36,-86 4373.64,-86 4373.64,-122"/>
<text text-anchor="middle" x="4290" y="-99.8" font-family="Times,serif" font-size="14.00">CheckRequestsComponent</text>
</g>
<!-- CheckRequestsComponent&#45;&gt;AppModule -->
<g id="edge6" class="edge">
<title>CheckRequestsComponent&#45;&gt;AppModule</title>
<path fill="none" stroke="black" d="M4290,-122.11C4290,-141.34 4290,-169 4290,-169 4290,-169 2860.94,-169 2860.94,-169"/>
<polygon fill="black" stroke="black" points="2860.94,-165.5 2850.94,-169 2860.94,-172.5 2860.94,-165.5"/>
</g>
<!-- CollaboratorSystemComponent -->
<g id="node7" class="node">
<title>CollaboratorSystemComponent</title>
<polygon fill="#ffffb3" stroke="black" points="4188.81,-122 3995.19,-122 3995.19,-86 4188.81,-86 4188.81,-122"/>
<text text-anchor="middle" x="4092" y="-99.8" font-family="Times,serif" font-size="14.00">CollaboratorSystemComponent</text>
</g>
<!-- CollaboratorSystemComponent&#45;&gt;AppModule -->
<g id="edge7" class="edge">
<title>CollaboratorSystemComponent&#45;&gt;AppModule</title>
<path fill="none" stroke="black" d="M4092,-122.22C4092,-140.83 4092,-167 4092,-167 4092,-167 2860.96,-167 2860.96,-167"/>
<polygon fill="black" stroke="black" points="2860.96,-163.5 2850.96,-167 2860.96,-170.5 2860.96,-163.5"/>
</g>
<!-- ColorClassDirective -->
<g id="node8" class="node">
<title>ColorClassDirective</title>
<polygon fill="#ffffb3" stroke="black" points="3977.3,-122 3846.7,-122 3846.7,-86 3977.3,-86 3977.3,-122"/>
<text text-anchor="middle" x="3912" y="-99.8" font-family="Times,serif" font-size="14.00">ColorClassDirective</text>
</g>
<!-- ColorClassDirective&#45;&gt;AppModule -->
<g id="edge8" class="edge">
<title>ColorClassDirective&#45;&gt;AppModule</title>
<path fill="none" stroke="black" d="M3912,-122.3C3912,-140.27 3912,-165 3912,-165 3912,-165 2860.89,-165 2860.89,-165"/>
<polygon fill="black" stroke="black" points="2860.89,-161.5 2850.89,-165 2860.89,-168.5 2860.89,-161.5"/>
</g>
<!-- DialogBoxComponent -->
<g id="node9" class="node">
<title>DialogBoxComponent</title>
<polygon fill="#ffffb3" stroke="black" points="3828.27,-122 3685.73,-122 3685.73,-86 3828.27,-86 3828.27,-122"/>
<text text-anchor="middle" x="3757" y="-99.8" font-family="Times,serif" font-size="14.00">DialogBoxComponent</text>
</g>
<!-- DialogBoxComponent&#45;&gt;AppModule -->
<g id="edge9" class="edge">
<title>DialogBoxComponent&#45;&gt;AppModule</title>
<path fill="none" stroke="black" d="M3757,-122.02C3757,-139.37 3757,-163 3757,-163 3757,-163 2860.96,-163 2860.96,-163"/>
<polygon fill="black" stroke="black" points="2860.96,-159.5 2850.96,-163 2860.96,-166.5 2860.96,-159.5"/>
</g>
<!-- DndDirective -->
<g id="node10" class="node">
<title>DndDirective</title>
<polygon fill="#ffffb3" stroke="black" points="3668.19,-122 3575.81,-122 3575.81,-86 3668.19,-86 3668.19,-122"/>
<text text-anchor="middle" x="3622" y="-99.8" font-family="Times,serif" font-size="14.00">DndDirective</text>
</g>
<!-- DndDirective&#45;&gt;AppModule -->
<g id="edge10" class="edge">
<title>DndDirective&#45;&gt;AppModule</title>
<path fill="none" stroke="black" d="M3622,-122.04C3622,-138.73 3622,-161 3622,-161 3622,-161 2860.72,-161 2860.72,-161"/>
<polygon fill="black" stroke="black" points="2860.72,-157.5 2850.72,-161 2860.72,-164.5 2860.72,-157.5"/>
</g>
<!-- EditUserDataComponent -->
<g id="node11" class="node">
<title>EditUserDataComponent</title>
<polygon fill="#ffffb3" stroke="black" points="3557.52,-122 3400.48,-122 3400.48,-86 3557.52,-86 3557.52,-122"/>
<text text-anchor="middle" x="3479" y="-99.8" font-family="Times,serif" font-size="14.00">EditUserDataComponent</text>
</g>
<!-- EditUserDataComponent&#45;&gt;AppModule -->
<g id="edge11" class="edge">
<title>EditUserDataComponent&#45;&gt;AppModule</title>
<path fill="none" stroke="black" d="M3479,-122.01C3479,-138.05 3479,-159 3479,-159 3479,-159 2860.66,-159 2860.66,-159"/>
<polygon fill="black" stroke="black" points="2860.66,-155.5 2850.66,-159 2860.66,-162.5 2860.66,-155.5"/>
</g>
<!-- HeaderComponent -->
<g id="node12" class="node">
<title>HeaderComponent</title>
<polygon fill="#ffffb3" stroke="black" points="3381.74,-122 3260.26,-122 3260.26,-86 3381.74,-86 3381.74,-122"/>
<text text-anchor="middle" x="3321" y="-99.8" font-family="Times,serif" font-size="14.00">HeaderComponent</text>
</g>
<!-- HeaderComponent&#45;&gt;AppModule -->
<g id="edge12" class="edge">
<title>HeaderComponent&#45;&gt;AppModule</title>
<path fill="none" stroke="black" d="M3321,-122.24C3321,-137.57 3321,-157 3321,-157 3321,-157 2860.9,-157 2860.9,-157"/>
<polygon fill="black" stroke="black" points="2860.9,-153.5 2850.9,-157 2860.9,-160.5 2860.9,-153.5"/>
</g>
<!-- ListClientsComponent -->
<g id="node13" class="node">
<title>ListClientsComponent</title>
<polygon fill="#ffffb3" stroke="black" points="3242.28,-122 3099.72,-122 3099.72,-86 3242.28,-86 3242.28,-122"/>
<text text-anchor="middle" x="3171" y="-99.8" font-family="Times,serif" font-size="14.00">ListClientsComponent</text>
</g>
<!-- ListClientsComponent&#45;&gt;AppModule -->
<g id="edge13" class="edge">
<title>ListClientsComponent&#45;&gt;AppModule</title>
<path fill="none" stroke="black" d="M3171,-122.12C3171,-136.78 3171,-155 3171,-155 3171,-155 2860.88,-155 2860.88,-155"/>
<polygon fill="black" stroke="black" points="2860.88,-151.5 2850.88,-155 2860.88,-158.5 2860.88,-151.5"/>
</g>
<!-- ListCollaboratorsComponent -->
<g id="node14" class="node">
<title>ListCollaboratorsComponent</title>
<polygon fill="#ffffb3" stroke="black" points="3081.81,-122 2902.19,-122 2902.19,-86 3081.81,-86 3081.81,-122"/>
<text text-anchor="middle" x="2992" y="-99.8" font-family="Times,serif" font-size="14.00">ListCollaboratorsComponent</text>
</g>
<!-- ListCollaboratorsComponent&#45;&gt;AppModule -->
<g id="edge14" class="edge">
<title>ListCollaboratorsComponent&#45;&gt;AppModule</title>
<path fill="none" stroke="black" d="M2992,-122.25C2992,-136.18 2992,-153 2992,-153 2992,-153 2860.98,-153 2860.98,-153"/>
<polygon fill="black" stroke="black" points="2860.98,-149.5 2850.98,-153 2860.98,-156.5 2860.98,-149.5"/>
</g>
<!-- LoadingFileComponent -->
<g id="node15" class="node">
<title>LoadingFileComponent</title>
<polygon fill="#ffffb3" stroke="black" points="2883.77,-122 2734.23,-122 2734.23,-86 2883.77,-86 2883.77,-122"/>
<text text-anchor="middle" x="2809" y="-99.8" font-family="Times,serif" font-size="14.00">LoadingFileComponent</text>
</g>
<!-- LoadingFileComponent&#45;&gt;AppModule -->
<g id="edge15" class="edge">
<title>LoadingFileComponent&#45;&gt;AppModule</title>
<path fill="none" stroke="black" d="M2809,-122.11C2809,-122.11 2809,-140.99 2809,-140.99"/>
<polygon fill="black" stroke="black" points="2805.5,-140.99 2809,-150.99 2812.5,-140.99 2805.5,-140.99"/>
</g>
<!-- LoginComponent -->
<g id="node16" class="node">
<title>LoginComponent</title>
<polygon fill="#ffffb3" stroke="black" points="2716.28,-122 2601.72,-122 2601.72,-86 2716.28,-86 2716.28,-122"/>
<text text-anchor="middle" x="2659" y="-99.8" font-family="Times,serif" font-size="14.00">LoginComponent</text>
</g>
<!-- LoginComponent&#45;&gt;AppModule -->
<g id="edge16" class="edge">
<title>LoginComponent&#45;&gt;AppModule</title>
<path fill="none" stroke="black" d="M2659,-122.25C2659,-136.18 2659,-153 2659,-153 2659,-153 2757.22,-153 2757.22,-153"/>
<polygon fill="black" stroke="black" points="2757.22,-156.5 2767.22,-153 2757.22,-149.5 2757.22,-156.5"/>
</g>
<!-- MainCreateRequestComponent -->
<g id="node17" class="node">
<title>MainCreateRequestComponent</title>
<polygon fill="#ffffb3" stroke="black" points="2583.02,-122 2390.98,-122 2390.98,-86 2583.02,-86 2583.02,-122"/>
<text text-anchor="middle" x="2487" y="-99.8" font-family="Times,serif" font-size="14.00">MainCreateRequestComponent</text>
</g>
<!-- MainCreateRequestComponent&#45;&gt;AppModule -->
<g id="edge17" class="edge">
<title>MainCreateRequestComponent&#45;&gt;AppModule</title>
<path fill="none" stroke="black" d="M2487,-122.12C2487,-136.78 2487,-155 2487,-155 2487,-155 2757.23,-155 2757.23,-155"/>
<polygon fill="black" stroke="black" points="2757.23,-158.5 2767.23,-155 2757.23,-151.5 2757.23,-158.5"/>
</g>
<!-- MainProfileComponent -->
<g id="node18" class="node">
<title>MainProfileComponent</title>
<polygon fill="#ffffb3" stroke="black" points="2372.48,-122 2223.52,-122 2223.52,-86 2372.48,-86 2372.48,-122"/>
<text text-anchor="middle" x="2298" y="-99.8" font-family="Times,serif" font-size="14.00">MainProfileComponent</text>
</g>
<!-- MainProfileComponent&#45;&gt;AppModule -->
<g id="edge18" class="edge">
<title>MainProfileComponent&#45;&gt;AppModule</title>
<path fill="none" stroke="black" d="M2298,-122.24C2298,-137.57 2298,-157 2298,-157 2298,-157 2757.18,-157 2757.18,-157"/>
<polygon fill="black" stroke="black" points="2757.18,-160.5 2767.18,-157 2757.18,-153.5 2757.18,-160.5"/>
</g>
<!-- PhoneMaskDirective -->
<g id="node19" class="node">
<title>PhoneMaskDirective</title>
<polygon fill="#ffffb3" stroke="black" points="2205.18,-122 2070.82,-122 2070.82,-86 2205.18,-86 2205.18,-122"/>
<text text-anchor="middle" x="2138" y="-99.8" font-family="Times,serif" font-size="14.00">PhoneMaskDirective</text>
</g>
<!-- PhoneMaskDirective&#45;&gt;AppModule -->
<g id="edge19" class="edge">
<title>PhoneMaskDirective&#45;&gt;AppModule</title>
<path fill="none" stroke="black" d="M2138,-122.01C2138,-138.05 2138,-159 2138,-159 2138,-159 2757.28,-159 2757.28,-159"/>
<polygon fill="black" stroke="black" points="2757.28,-162.5 2767.28,-159 2757.28,-155.5 2757.28,-162.5"/>
</g>
<!-- RecoveryPasswordComponent -->
<g id="node20" class="node">
<title>RecoveryPasswordComponent</title>
<polygon fill="#ffffb3" stroke="black" points="2053.13,-122 1864.87,-122 1864.87,-86 2053.13,-86 2053.13,-122"/>
<text text-anchor="middle" x="1959" y="-99.8" font-family="Times,serif" font-size="14.00">RecoveryPasswordComponent</text>
</g>
<!-- RecoveryPasswordComponent&#45;&gt;AppModule -->
<g id="edge20" class="edge">
<title>RecoveryPasswordComponent&#45;&gt;AppModule</title>
<path fill="none" stroke="black" d="M1959,-122.04C1959,-138.73 1959,-161 1959,-161 1959,-161 2757.14,-161 2757.14,-161"/>
<polygon fill="black" stroke="black" points="2757.14,-164.5 2767.14,-161 2757.14,-157.5 2757.14,-164.5"/>
</g>
<!-- RegisterCollaboratorComponent -->
<g id="node21" class="node">
<title>RegisterCollaboratorComponent</title>
<polygon fill="#ffffb3" stroke="black" points="1846.24,-122 1647.76,-122 1647.76,-86 1846.24,-86 1846.24,-122"/>
<text text-anchor="middle" x="1747" y="-99.8" font-family="Times,serif" font-size="14.00">RegisterCollaboratorComponent</text>
</g>
<!-- RegisterCollaboratorComponent&#45;&gt;AppModule -->
<g id="edge21" class="edge">
<title>RegisterCollaboratorComponent&#45;&gt;AppModule</title>
<path fill="none" stroke="black" d="M1747,-122.02C1747,-139.37 1747,-163 1747,-163 1747,-163 2757.04,-163 2757.04,-163"/>
<polygon fill="black" stroke="black" points="2757.04,-166.5 2767.04,-163 2757.04,-159.5 2757.04,-166.5"/>
</g>
<!-- RegisterComponent -->
<g id="node22" class="node">
<title>RegisterComponent</title>
<polygon fill="#ffffb3" stroke="black" points="1629.98,-122 1502.02,-122 1502.02,-86 1629.98,-86 1629.98,-122"/>
<text text-anchor="middle" x="1566" y="-99.8" font-family="Times,serif" font-size="14.00">RegisterComponent</text>
</g>
<!-- RegisterComponent&#45;&gt;AppModule -->
<g id="edge22" class="edge">
<title>RegisterComponent&#45;&gt;AppModule</title>
<path fill="none" stroke="black" d="M1566,-122.3C1566,-140.27 1566,-165 1566,-165 1566,-165 2757.29,-165 2757.29,-165"/>
<polygon fill="black" stroke="black" points="2757.29,-168.5 2767.29,-165 2757.29,-161.5 2757.29,-168.5"/>
</g>
<!-- RequestDetailsComponent -->
<g id="node23" class="node">
<title>RequestDetailsComponent</title>
<polygon fill="#ffffb3" stroke="black" points="1484.09,-122 1317.91,-122 1317.91,-86 1484.09,-86 1484.09,-122"/>
<text text-anchor="middle" x="1401" y="-99.8" font-family="Times,serif" font-size="14.00">RequestDetailsComponent</text>
</g>
<!-- RequestDetailsComponent&#45;&gt;AppModule -->
<g id="edge23" class="edge">
<title>RequestDetailsComponent&#45;&gt;AppModule</title>
<path fill="none" stroke="black" d="M1401,-122.22C1401,-140.83 1401,-167 1401,-167 1401,-167 2757.24,-167 2757.24,-167"/>
<polygon fill="black" stroke="black" points="2757.24,-170.5 2767.24,-167 2757.24,-163.5 2757.24,-170.5"/>
</g>
<!-- ResetPasswordComponent -->
<g id="node24" class="node">
<title>ResetPasswordComponent</title>
<polygon fill="#ffffb3" stroke="black" points="1300.09,-122 1133.91,-122 1133.91,-86 1300.09,-86 1300.09,-122"/>
<text text-anchor="middle" x="1217" y="-99.8" font-family="Times,serif" font-size="14.00">ResetPasswordComponent</text>
</g>
<!-- ResetPasswordComponent&#45;&gt;AppModule -->
<g id="edge24" class="edge">
<title>ResetPasswordComponent&#45;&gt;AppModule</title>
<path fill="none" stroke="black" d="M1217,-122.11C1217,-141.34 1217,-169 1217,-169 1217,-169 2757.24,-169 2757.24,-169"/>
<polygon fill="black" stroke="black" points="2757.24,-172.5 2767.24,-169 2757.24,-165.5 2757.24,-172.5"/>
</g>
<!-- SidenavComponent -->
<g id="node25" class="node">
<title>SidenavComponent</title>
<polygon fill="#ffffb3" stroke="black" points="1116.44,-122 989.56,-122 989.56,-86 1116.44,-86 1116.44,-122"/>
<text text-anchor="middle" x="1053" y="-99.8" font-family="Times,serif" font-size="14.00">SidenavComponent</text>
</g>
<!-- SidenavComponent&#45;&gt;AppModule -->
<g id="edge25" class="edge">
<title>SidenavComponent&#45;&gt;AppModule</title>
<path fill="none" stroke="black" d="M1053,-122.31C1053,-142.15 1053,-171 1053,-171 1053,-171 2757.33,-171 2757.33,-171"/>
<polygon fill="black" stroke="black" points="2757.33,-174.5 2767.33,-171 2757.32,-167.5 2757.33,-174.5"/>
</g>
<!-- SignpostComponent -->
<g id="node26" class="node">
<title>SignpostComponent</title>
<polygon fill="#ffffb3" stroke="black" points="972.34,-122 841.66,-122 841.66,-86 972.34,-86 972.34,-122"/>
<text text-anchor="middle" x="907" y="-99.8" font-family="Times,serif" font-size="14.00">SignpostComponent</text>
</g>
<!-- SignpostComponent&#45;&gt;AppModule -->
<g id="edge26" class="edge">
<title>SignpostComponent&#45;&gt;AppModule</title>
<path fill="none" stroke="black" d="M907,-122.13C907,-142.57 907,-173 907,-173 907,-173 2757.06,-173 2757.06,-173"/>
<polygon fill="black" stroke="black" points="2757.06,-176.5 2767.06,-173 2757.06,-169.5 2757.06,-176.5"/>
</g>
<!-- SignpostRequestComponent -->
<g id="node27" class="node">
<title>SignpostRequestComponent</title>
<polygon fill="#ffffb3" stroke="black" points="823.94,-122 648.06,-122 648.06,-86 823.94,-86 823.94,-122"/>
<text text-anchor="middle" x="736" y="-99.8" font-family="Times,serif" font-size="14.00">SignpostRequestComponent</text>
</g>
<!-- SignpostRequestComponent&#45;&gt;AppModule -->
<g id="edge27" class="edge">
<title>SignpostRequestComponent&#45;&gt;AppModule</title>
<path fill="none" stroke="black" d="M736,-122.28C736,-143.32 736,-175 736,-175 736,-175 2757.12,-175 2757.12,-175"/>
<polygon fill="black" stroke="black" points="2757.12,-178.5 2767.12,-175 2757.12,-171.5 2757.12,-178.5"/>
</g>
<!-- StickerComponent -->
<g id="node28" class="node">
<title>StickerComponent</title>
<polygon fill="#ffffb3" stroke="black" points="630.49,-122 509.51,-122 509.51,-86 630.49,-86 630.49,-122"/>
<text text-anchor="middle" x="570" y="-99.8" font-family="Times,serif" font-size="14.00">StickerComponent</text>
</g>
<!-- StickerComponent&#45;&gt;AppModule -->
<g id="edge28" class="edge">
<title>StickerComponent&#45;&gt;AppModule</title>
<path fill="none" stroke="black" d="M570,-122.04C570,-143.66 570,-177 570,-177 570,-177 2757.25,-177 2757.25,-177"/>
<polygon fill="black" stroke="black" points="2757.25,-180.5 2767.25,-177 2757.25,-173.5 2757.25,-180.5"/>
</g>
<!-- StickersRequestComponent -->
<g id="node29" class="node">
<title>StickersRequestComponent</title>
<polygon fill="#ffffb3" stroke="black" points="491.53,-122 320.47,-122 320.47,-86 491.53,-86 491.53,-122"/>
<text text-anchor="middle" x="406" y="-99.8" font-family="Times,serif" font-size="14.00">StickersRequestComponent</text>
</g>
<!-- StickersRequestComponent&#45;&gt;AppModule -->
<g id="edge29" class="edge">
<title>StickersRequestComponent&#45;&gt;AppModule</title>
<path fill="none" stroke="black" d="M406,-122.16C406,-144.35 406,-179 406,-179 406,-179 2757.29,-179 2757.29,-179"/>
<polygon fill="black" stroke="black" points="2757.29,-182.5 2767.29,-179 2757.29,-175.5 2757.29,-182.5"/>
</g>
<!-- UserDataComponent -->
<g id="node30" class="node">
<title>UserDataComponent</title>
<polygon fill="#ffffb3" stroke="black" points="302.19,-122 167.81,-122 167.81,-86 302.19,-86 302.19,-122"/>
<text text-anchor="middle" x="235" y="-99.8" font-family="Times,serif" font-size="14.00">UserDataComponent</text>
</g>
<!-- UserDataComponent&#45;&gt;AppModule -->
<g id="edge30" class="edge">
<title>UserDataComponent&#45;&gt;AppModule</title>
<path fill="none" stroke="black" d="M235,-122.25C235,-145.02 235,-181 235,-181 235,-181 2757.26,-181 2757.26,-181"/>
<polygon fill="black" stroke="black" points="2757.26,-184.5 2767.26,-181 2757.26,-177.5 2757.26,-184.5"/>
</g>
<!-- VersionComponent -->
<g id="node31" class="node">
<title>VersionComponent</title>
<polygon fill="#ffffb3" stroke="black" points="149.65,-122 24.35,-122 24.35,-86 149.65,-86 149.65,-122"/>
<text text-anchor="middle" x="87" y="-99.8" font-family="Times,serif" font-size="14.00">VersionComponent</text>
</g>
<!-- VersionComponent&#45;&gt;AppModule -->
<g id="edge31" class="edge">
<title>VersionComponent&#45;&gt;AppModule</title>
<path fill="none" stroke="black" d="M66.06,-122.38C66.06,-146.28 66.06,-185 66.06,-185 66.06,-185 2757.28,-185 2757.28,-185"/>
<polygon fill="black" stroke="black" points="2757.28,-188.5 2767.28,-185 2757.28,-181.5 2757.28,-188.5"/>
</g>
<!-- VersionComponent&#45;&gt;AppModule -->
<g id="edge32" class="edge">
<title>VersionComponent&#45;&gt;AppModule</title>
<path fill="none" stroke="black" d="M107.94,-122.32C107.94,-145.66 107.94,-183 107.94,-183 107.94,-183 2757.11,-183 2757.11,-183"/>
<polygon fill="black" stroke="black" points="2757.11,-186.5 2767.11,-183 2757.11,-179.5 2757.11,-186.5"/>
</g>
<!-- AppComponent  -->
<g id="node36" class="node">
<title>AppComponent </title>
<polygon fill="#80b1d3" stroke="black" points="2863.44,-252 2754.56,-252 2754.56,-216 2863.44,-216 2863.44,-252"/>
<text text-anchor="middle" x="2809" y="-229.8" font-family="Times,serif" font-size="14.00">AppComponent </text>
</g>
<!-- AppModule&#45;&gt;AppComponent  -->
<g id="edge36" class="edge">
<title>AppModule&#45;&gt;AppComponent </title>
<path fill="none" stroke="black" stroke-dasharray="1,5" d="M2809,-187.11C2809,-187.11 2809,-205.99 2809,-205.99"/>
<polygon fill="black" stroke="black" points="2805.5,-205.99 2809,-215.99 2812.5,-205.99 2805.5,-205.99"/>
</g>
<!-- AppRoutingModule -->
<g id="node33" class="node">
<title>AppRoutingModule</title>
<polygon fill="#8dd3c7" stroke="black" points="5751.27,-122 5748.27,-126 5727.27,-126 5724.27,-122 5622.73,-122 5622.73,-86 5751.27,-86 5751.27,-122"/>
<text text-anchor="middle" x="5687" y="-99.8" font-family="Times,serif" font-size="14.00">AppRoutingModule</text>
</g>
<!-- AppRoutingModule&#45;&gt;AppModule -->
<g id="edge33" class="edge">
<title>AppRoutingModule&#45;&gt;AppModule</title>
<path fill="none" stroke="black" d="M5687,-122.38C5687,-146.28 5687,-185 5687,-185 5687,-185 2860.79,-185 2860.79,-185"/>
<polygon fill="black" stroke="black" points="2860.79,-181.5 2850.79,-185 2860.79,-188.5 2860.79,-181.5"/>
</g>
<!-- MainCreateRequestRoutingModule -->
<g id="node34" class="node">
<title>MainCreateRequestRoutingModule</title>
<polygon fill="#8dd3c7" stroke="black" points="5604.85,-122 5601.85,-126 5580.85,-126 5577.85,-122 5389.15,-122 5389.15,-86 5604.85,-86 5604.85,-122"/>
<text text-anchor="middle" x="5497" y="-99.8" font-family="Times,serif" font-size="14.00">MainCreateRequestRoutingModule</text>
</g>
<!-- MainCreateRequestRoutingModule&#45;&gt;AppModule -->
<g id="edge34" class="edge">
<title>MainCreateRequestRoutingModule&#45;&gt;AppModule</title>
<path fill="none" stroke="black" d="M5497,-122.32C5497,-145.66 5497,-183 5497,-183 5497,-183 2860.68,-183 2860.68,-183"/>
<polygon fill="black" stroke="black" points="2860.68,-179.5 2850.68,-183 2860.68,-186.5 2860.68,-179.5"/>
</g>
<!-- ProfileRoutingModule -->
<g id="node35" class="node">
<title>ProfileRoutingModule</title>
<polygon fill="#8dd3c7" stroke="black" points="5371.27,-122 5368.27,-126 5347.27,-126 5344.27,-122 5228.73,-122 5228.73,-86 5371.27,-86 5371.27,-122"/>
<text text-anchor="middle" x="5300" y="-99.8" font-family="Times,serif" font-size="14.00">ProfileRoutingModule</text>
</g>
<!-- ProfileRoutingModule&#45;&gt;AppModule -->
<g id="edge35" class="edge">
<title>ProfileRoutingModule&#45;&gt;AppModule</title>
<path fill="none" stroke="black" d="M5300,-122.25C5300,-145.02 5300,-181 5300,-181 5300,-181 2860.67,-181 2860.67,-181"/>
<polygon fill="black" stroke="black" points="2860.67,-177.5 2850.67,-181 2860.67,-184.5 2860.67,-177.5"/>
</g>
</g>
</svg>
