<?xml version="1.0" encoding="UTF-8" standalone="no"?>
<!DOCTYPE svg PUBLIC "-//W3C//DTD SVG 1.1//EN"
 "http://www.w3.org/Graphics/SVG/1.1/DTD/svg11.dtd">
<!-- Generated by graphviz version 2.47.0 (20210316.0004)
 -->
<!-- Title: dependencies Pages: 1 -->
<svg width="5781pt" height="284pt"
 viewBox="0.00 0.00 5781.00 284.00" xmlns="http://www.w3.org/2000/svg" xmlns:xlink="http://www.w3.org/1999/xlink">
<g id="graph0" class="graph" transform="scale(1 1) rotate(0) translate(4 280)">
<title>dependencies</title>
<polygon fill="white" stroke="transparent" points="-4,4 -4,-280 5777,-280 5777,4 -4,4"/>
<text text-anchor="start" x="2865.51" y="-42.4" font-family="Times-12" font-weight="bold" font-size="14.00">Legend</text>
<polygon fill="#ffffb3" stroke="transparent" points="2652.5,-10 2652.5,-30 2672.5,-30 2672.5,-10 2652.5,-10"/>
<text text-anchor="start" x="2676.13" y="-15.4" font-family="Times-12" font-size="14.00"> &#160;Declarations</text>
<polygon fill="#8dd3c7" stroke="transparent" points="2765.5,-10 2765.5,-30 2785.5,-30 2785.5,-10 2765.5,-10"/>
<text text-anchor="start" x="2789.23" y="-15.4" font-family="Times-12" font-size="14.00"> &#160;Module</text>
<polygon fill="#80b1d3" stroke="transparent" points="2851.5,-10 2851.5,-30 2871.5,-30 2871.5,-10 2851.5,-10"/>
<text text-anchor="start" x="2875.28" y="-15.4" font-family="Times-12" font-size="14.00"> &#160;Bootstrap</text>
<polygon fill="#fdb462" stroke="transparent" points="2948.5,-10 2948.5,-30 2968.5,-30 2968.5,-10 2948.5,-10"/>
<text text-anchor="start" x="2972.17" y="-15.4" font-family="Times-12" font-size="14.00"> &#160;Providers</text>
<polygon fill="#fb8072" stroke="transparent" points="3044.5,-10 3044.5,-30 3064.5,-30 3064.5,-10 3044.5,-10"/>
<text text-anchor="start" x="3068.23" y="-15.4" font-family="Times-12" font-size="14.00"> &#160;Exports</text>
<g id="clust1" class="cluster">
<title>cluster_AppModule</title>
<polygon fill="none" stroke="black" stroke-dasharray="1,5" points="8,-70 8,-268 5765,-268 5765,-70 8,-70"/>
</g>
<g id="clust36" class="cluster">
<title>cluster_AppModule_bootstrap</title>
<polygon fill="none" stroke="black" points="2745,-208 2745,-260 2869,-260 2869,-208 2745,-208"/>
</g>
<g id="clust34" class="cluster">
<title>cluster_AppModule_imports</title>
<polygon fill="none" stroke="black" points="5219,-78 5219,-130 5757,-130 5757,-78 5219,-78"/>
</g>
<g id="clust2" class="cluster">
<title>cluster_AppModule_declarations</title>
<polygon fill="none" stroke="black" points="16,-78 16,-130 5211,-130 5211,-78 16,-78"/>
</g>
<!-- AgencyBoardComponent -->
<g id="node1" class="node">
<title>AgencyBoardComponent</title>
<polygon fill="#ffffb3" stroke="black" points="5202.58,-122 5043.42,-122 5043.42,-86 5202.58,-86 5202.58,-122"/>
<text text-anchor="middle" x="5123" y="-99.8" font-family="Times,serif" font-size="14.00">AgencyBoardComponent</text>
</g>
<!-- AppModule -->
<g id="node32" class="node">
<title>AppModule</title>
<polygon fill="#8dd3c7" stroke="black" points="2848.66,-187 2845.66,-191 2824.66,-191 2821.66,-187 2765.34,-187 2765.34,-151 2848.66,-151 2848.66,-187"/>
<text text-anchor="middle" x="2807" y="-164.8" font-family="Times,serif" font-size="14.00">AppModule</text>
</g>
<!-- AgencyBoardComponent&#45;&gt;AppModule -->
<g id="edge1" class="edge">
<title>AgencyBoardComponent&#45;&gt;AppModule</title>
<path fill="none" stroke="black" d="M5123,-122.16C5123,-144.35 5123,-179 5123,-179 5123,-179 2858.68,-179 2858.68,-179"/>
<polygon fill="black" stroke="black" points="2858.68,-175.5 2848.68,-179 2858.68,-182.5 2858.68,-175.5"/>
</g>
<!-- AgencyBoardRequestComponent -->
<g id="node2" class="node">
<title>AgencyBoardRequestComponent</title>
<polygon fill="#ffffb3" stroke="black" points="5025.18,-122 4820.82,-122 4820.82,-86 5025.18,-86 5025.18,-122"/>
<text text-anchor="middle" x="4923" y="-99.8" font-family="Times,serif" font-size="14.00">AgencyBoardRequestComponent</text>
</g>
<!-- AgencyBoardRequestComponent&#45;&gt;AppModule -->
<g id="edge2" class="edge">
<title>AgencyBoardRequestComponent&#45;&gt;AppModule</title>
<path fill="none" stroke="black" d="M4923,-122.04C4923,-143.66 4923,-177 4923,-177 4923,-177 2858.79,-177 2858.79,-177"/>
<polygon fill="black" stroke="black" points="2858.79,-173.5 2848.79,-177 2858.79,-180.5 2858.79,-173.5"/>
</g>
<!-- AppComponent -->
<g id="node3" class="node">
<title>AppComponent</title>
<polygon fill="#ffffb3" stroke="black" points="4802.94,-122 4697.06,-122 4697.06,-86 4802.94,-86 4802.94,-122"/>
<text text-anchor="middle" x="4750" y="-99.8" font-family="Times,serif" font-size="14.00">AppComponent</text>
</g>
<!-- AppComponent&#45;&gt;AppModule -->
<g id="edge3" class="edge">
<title>AppComponent&#45;&gt;AppModule</title>
<path fill="none" stroke="black" d="M4750,-122.28C4750,-143.32 4750,-175 4750,-175 4750,-175 2858.93,-175 2858.93,-175"/>
<polygon fill="black" stroke="black" points="2858.93,-171.5 2848.93,-175 2858.93,-178.5 2858.93,-171.5"/>
</g>
<!-- BtnFinalizeComponent -->
<g id="node4" class="node">
<title>BtnFinalizeComponent</title>
<polygon fill="#ffffb3" stroke="black" points="4679.16,-122 4532.84,-122 4532.84,-86 4679.16,-86 4679.16,-122"/>
<text text-anchor="middle" x="4606" y="-99.8" font-family="Times,serif" font-size="14.00">BtnFinalizeComponent</text>
</g>
<!-- BtnFinalizeComponent&#45;&gt;AppModule -->
<g id="edge4" class="edge">
<title>BtnFinalizeComponent&#45;&gt;AppModule</title>
<path fill="none" stroke="black" d="M4606,-122.13C4606,-142.57 4606,-173 4606,-173 4606,-173 2858.82,-173 2858.82,-173"/>
<polygon fill="black" stroke="black" points="2858.82,-169.5 2848.82,-173 2858.82,-176.5 2858.82,-169.5"/>
</g>
<!-- CapitalizeDirective -->
<g id="node5" class="node">
<title>CapitalizeDirective</title>
<polygon fill="#ffffb3" stroke="black" points="4514.34,-122 4389.66,-122 4389.66,-86 4514.34,-86 4514.34,-122"/>
<text text-anchor="middle" x="4452" y="-99.8" font-family="Times,serif" font-size="14.00">CapitalizeDirective</text>
</g>
<!-- CapitalizeDirective&#45;&gt;AppModule -->
<g id="edge5" class="edge">
<title>CapitalizeDirective&#45;&gt;AppModule</title>
<path fill="none" stroke="black" d="M4452,-122.31C4452,-142.15 4452,-171 4452,-171 4452,-171 2858.9,-171 2858.9,-171"/>
<polygon fill="black" stroke="black" points="2858.9,-167.5 2848.9,-171 2858.9,-174.5 2858.9,-167.5"/>
</g>
<!-- CheckRequestsComponent -->
<g id="node6" class="node">
<title>CheckRequestsComponent</title>
<polygon fill="#ffffb3" stroke="black" points="4371.64,-122 4204.36,-122 4204.36,-86 4371.64,-86 4371.64,-122"/>
<text text-anchor="middle" x="4288" y="-99.8" font-family="Times,serif" font-size="14.00">CheckRequestsComponent</text>
</g>
<!-- CheckRequestsComponent&#45;&gt;AppModule -->
<g id="edge6" class="edge">
<title>CheckRequestsComponent&#45;&gt;AppModule</title>
<path fill="none" stroke="black" d="M4288,-122.11C4288,-141.34 4288,-169 4288,-169 4288,-169 2858.94,-169 2858.94,-169"/>
<polygon fill="black" stroke="black" points="2858.94,-165.5 2848.94,-169 2858.94,-172.5 2858.94,-165.5"/>
</g>
<!-- CollaboratorSystemComponent -->
<g id="node7" class="node">
<title>CollaboratorSystemComponent</title>
<polygon fill="#ffffb3" stroke="black" points="4186.81,-122 3993.19,-122 3993.19,-86 4186.81,-86 4186.81,-122"/>
<text text-anchor="middle" x="4090" y="-99.8" font-family="Times,serif" font-size="14.00">CollaboratorSystemComponent</text>
</g>
<!-- CollaboratorSystemComponent&#45;&gt;AppModule -->
<g id="edge7" class="edge">
<title>CollaboratorSystemComponent&#45;&gt;AppModule</title>
<path fill="none" stroke="black" d="M4090,-122.22C4090,-140.83 4090,-167 4090,-167 4090,-167 2858.96,-167 2858.96,-167"/>
<polygon fill="black" stroke="black" points="2858.96,-163.5 2848.96,-167 2858.96,-170.5 2858.96,-163.5"/>
</g>
<!-- ColorClassDirective -->
<g id="node8" class="node">
<title>ColorClassDirective</title>
<polygon fill="#ffffb3" stroke="black" points="3975.3,-122 3844.7,-122 3844.7,-86 3975.3,-86 3975.3,-122"/>
<text text-anchor="middle" x="3910" y="-99.8" font-family="Times,serif" font-size="14.00">ColorClassDirective</text>
</g>
<!-- ColorClassDirective&#45;&gt;AppModule -->
<g id="edge8" class="edge">
<title>ColorClassDirective&#45;&gt;AppModule</title>
<path fill="none" stroke="black" d="M3910,-122.3C3910,-140.27 3910,-165 3910,-165 3910,-165 2858.89,-165 2858.89,-165"/>
<polygon fill="black" stroke="black" points="2858.89,-161.5 2848.89,-165 2858.89,-168.5 2858.89,-161.5"/>
</g>
<!-- DialogBoxComponent -->
<g id="node9" class="node">
<title>DialogBoxComponent</title>
<polygon fill="#ffffb3" stroke="black" points="3826.27,-122 3683.73,-122 3683.73,-86 3826.27,-86 3826.27,-122"/>
<text text-anchor="middle" x="3755" y="-99.8" font-family="Times,serif" font-size="14.00">DialogBoxComponent</text>
</g>
<!-- DialogBoxComponent&#45;&gt;AppModule -->
<g id="edge9" class="edge">
<title>DialogBoxComponent&#45;&gt;AppModule</title>
<path fill="none" stroke="black" d="M3755,-122.02C3755,-139.37 3755,-163 3755,-163 3755,-163 2858.96,-163 2858.96,-163"/>
<polygon fill="black" stroke="black" points="2858.96,-159.5 2848.96,-163 2858.96,-166.5 2858.96,-159.5"/>
</g>
<!-- DndDirective -->
<g id="node10" class="node">
<title>DndDirective</title>
<polygon fill="#ffffb3" stroke="black" points="3666.19,-122 3573.81,-122 3573.81,-86 3666.19,-86 3666.19,-122"/>
<text text-anchor="middle" x="3620" y="-99.8" font-family="Times,serif" font-size="14.00">DndDirective</text>
</g>
<!-- DndDirective&#45;&gt;AppModule -->
<g id="edge10" class="edge">
<title>DndDirective&#45;&gt;AppModule</title>
<path fill="none" stroke="black" d="M3620,-122.04C3620,-138.73 3620,-161 3620,-161 3620,-161 2858.72,-161 2858.72,-161"/>
<polygon fill="black" stroke="black" points="2858.72,-157.5 2848.72,-161 2858.72,-164.5 2858.72,-157.5"/>
</g>
<!-- EditUserDataComponent -->
<g id="node11" class="node">
<title>EditUserDataComponent</title>
<polygon fill="#ffffb3" stroke="black" points="3555.52,-122 3398.48,-122 3398.48,-86 3555.52,-86 3555.52,-122"/>
<text text-anchor="middle" x="3477" y="-99.8" font-family="Times,serif" font-size="14.00">EditUserDataComponent</text>
</g>
<!-- EditUserDataComponent&#45;&gt;AppModule -->
<g id="edge11" class="edge">
<title>EditUserDataComponent&#45;&gt;AppModule</title>
<path fill="none" stroke="black" d="M3477,-122.01C3477,-138.05 3477,-159 3477,-159 3477,-159 2858.66,-159 2858.66,-159"/>
<polygon fill="black" stroke="black" points="2858.66,-155.5 2848.66,-159 2858.66,-162.5 2858.66,-155.5"/>
</g>
<!-- HeaderComponent -->
<g id="node12" class="node">
<title>HeaderComponent</title>
<polygon fill="#ffffb3" stroke="black" points="3379.74,-122 3258.26,-122 3258.26,-86 3379.74,-86 3379.74,-122"/>
<text text-anchor="middle" x="3319" y="-99.8" font-family="Times,serif" font-size="14.00">HeaderComponent</text>
</g>
<!-- HeaderComponent&#45;&gt;AppModule -->
<g id="edge12" class="edge">
<title>HeaderComponent&#45;&gt;AppModule</title>
<path fill="none" stroke="black" d="M3319,-122.24C3319,-137.57 3319,-157 3319,-157 3319,-157 2858.9,-157 2858.9,-157"/>
<polygon fill="black" stroke="black" points="2858.9,-153.5 2848.9,-157 2858.9,-160.5 2858.9,-153.5"/>
</g>
<!-- ListClientsComponent -->
<g id="node13" class="node">
<title>ListClientsComponent</title>
<polygon fill="#ffffb3" stroke="black" points="3240.28,-122 3097.72,-122 3097.72,-86 3240.28,-86 3240.28,-122"/>
<text text-anchor="middle" x="3169" y="-99.8" font-family="Times,serif" font-size="14.00">ListClientsComponent</text>
</g>
<!-- ListClientsComponent&#45;&gt;AppModule -->
<g id="edge13" class="edge">
<title>ListClientsComponent&#45;&gt;AppModule</title>
<path fill="none" stroke="black" d="M3169,-122.12C3169,-136.78 3169,-155 3169,-155 3169,-155 2858.88,-155 2858.88,-155"/>
<polygon fill="black" stroke="black" points="2858.88,-151.5 2848.88,-155 2858.88,-158.5 2858.88,-151.5"/>
</g>
<!-- ListCollaboratorsComponent -->
<g id="node14" class="node">
<title>ListCollaboratorsComponent</title>
<polygon fill="#ffffb3" stroke="black" points="3079.81,-122 2900.19,-122 2900.19,-86 3079.81,-86 3079.81,-122"/>
<text text-anchor="middle" x="2990" y="-99.8" font-family="Times,serif" font-size="14.00">ListCollaboratorsComponent</text>
</g>
<!-- ListCollaboratorsComponent&#45;&gt;AppModule -->
<g id="edge14" class="edge">
<title>ListCollaboratorsComponent&#45;&gt;AppModule</title>
<path fill="none" stroke="black" d="M2990,-122.25C2990,-136.18 2990,-153 2990,-153 2990,-153 2858.98,-153 2858.98,-153"/>
<polygon fill="black" stroke="black" points="2858.98,-149.5 2848.98,-153 2858.98,-156.5 2858.98,-149.5"/>
</g>
<!-- LoadingFileComponent -->
<g id="node15" class="node">
<title>LoadingFileComponent</title>
<polygon fill="#ffffb3" stroke="black" points="2881.77,-122 2732.23,-122 2732.23,-86 2881.77,-86 2881.77,-122"/>
<text text-anchor="middle" x="2807" y="-99.8" font-family="Times,serif" font-size="14.00">LoadingFileComponent</text>
</g>
<!-- LoadingFileComponent&#45;&gt;AppModule -->
<g id="edge15" class="edge">
<title>LoadingFileComponent&#45;&gt;AppModule</title>
<path fill="none" stroke="black" d="M2807,-122.11C2807,-122.11 2807,-140.99 2807,-140.99"/>
<polygon fill="black" stroke="black" points="2803.5,-140.99 2807,-150.99 2810.5,-140.99 2803.5,-140.99"/>
</g>
<!-- LoginComponent -->
<g id="node16" class="node">
<title>LoginComponent</title>
<polygon fill="#ffffb3" stroke="black" points="2714.28,-122 2599.72,-122 2599.72,-86 2714.28,-86 2714.28,-122"/>
<text text-anchor="middle" x="2657" y="-99.8" font-family="Times,serif" font-size="14.00">LoginComponent</text>
</g>
<!-- LoginComponent&#45;&gt;AppModule -->
<g id="edge16" class="edge">
<title>LoginComponent&#45;&gt;AppModule</title>
<path fill="none" stroke="black" d="M2657,-122.25C2657,-136.18 2657,-153 2657,-153 2657,-153 2755.22,-153 2755.22,-153"/>
<polygon fill="black" stroke="black" points="2755.22,-156.5 2765.22,-153 2755.22,-149.5 2755.22,-156.5"/>
</g>
<!-- MainCreateRequestComponent -->
<g id="node17" class="node">
<title>MainCreateRequestComponent</title>
<polygon fill="#ffffb3" stroke="black" points="2581.02,-122 2388.98,-122 2388.98,-86 2581.02,-86 2581.02,-122"/>
<text text-anchor="middle" x="2485" y="-99.8" font-family="Times,serif" font-size="14.00">MainCreateRequestComponent</text>
</g>
<!-- MainCreateRequestComponent&#45;&gt;AppModule -->
<g id="edge17" class="edge">
<title>MainCreateRequestComponent&#45;&gt;AppModule</title>
<path fill="none" stroke="black" d="M2485,-122.12C2485,-136.78 2485,-155 2485,-155 2485,-155 2755.23,-155 2755.23,-155"/>
<polygon fill="black" stroke="black" points="2755.23,-158.5 2765.23,-155 2755.23,-151.5 2755.23,-158.5"/>
</g>
<!-- MainProfileComponent -->
<g id="node18" class="node">
<title>MainProfileComponent</title>
<polygon fill="#ffffb3" stroke="black" points="2370.48,-122 2221.52,-122 2221.52,-86 2370.48,-86 2370.48,-122"/>
<text text-anchor="middle" x="2296" y="-99.8" font-family="Times,serif" font-size="14.00">MainProfileComponent</text>
</g>
<!-- MainProfileComponent&#45;&gt;AppModule -->
<g id="edge18" class="edge">
<title>MainProfileComponent&#45;&gt;AppModule</title>
<path fill="none" stroke="black" d="M2296,-122.24C2296,-137.57 2296,-157 2296,-157 2296,-157 2755.18,-157 2755.18,-157"/>
<polygon fill="black" stroke="black" points="2755.18,-160.5 2765.18,-157 2755.18,-153.5 2755.18,-160.5"/>
</g>
<!-- PhoneMaskDirective -->
<g id="node19" class="node">
<title>PhoneMaskDirective</title>
<polygon fill="#ffffb3" stroke="black" points="2203.18,-122 2068.82,-122 2068.82,-86 2203.18,-86 2203.18,-122"/>
<text text-anchor="middle" x="2136" y="-99.8" font-family="Times,serif" font-size="14.00">PhoneMaskDirective</text>
</g>
<!-- PhoneMaskDirective&#45;&gt;AppModule -->
<g id="edge19" class="edge">
<title>PhoneMaskDirective&#45;&gt;AppModule</title>
<path fill="none" stroke="black" d="M2136,-122.01C2136,-138.05 2136,-159 2136,-159 2136,-159 2755.28,-159 2755.28,-159"/>
<polygon fill="black" stroke="black" points="2755.28,-162.5 2765.28,-159 2755.28,-155.5 2755.28,-162.5"/>
</g>
<!-- RecoveryPasswordComponent -->
<g id="node20" class="node">
<title>RecoveryPasswordComponent</title>
<polygon fill="#ffffb3" stroke="black" points="2051.13,-122 1862.87,-122 1862.87,-86 2051.13,-86 2051.13,-122"/>
<text text-anchor="middle" x="1957" y="-99.8" font-family="Times,serif" font-size="14.00">RecoveryPasswordComponent</text>
</g>
<!-- RecoveryPasswordComponent&#45;&gt;AppModule -->
<g id="edge20" class="edge">
<title>RecoveryPasswordComponent&#45;&gt;AppModule</title>
<path fill="none" stroke="black" d="M1957,-122.04C1957,-138.73 1957,-161 1957,-161 1957,-161 2755.14,-161 2755.14,-161"/>
<polygon fill="black" stroke="black" points="2755.14,-164.5 2765.14,-161 2755.14,-157.5 2755.14,-164.5"/>
</g>
<!-- RegisterCollaboratorComponent -->
<g id="node21" class="node">
<title>RegisterCollaboratorComponent</title>
<polygon fill="#ffffb3" stroke="black" points="1844.24,-122 1645.76,-122 1645.76,-86 1844.24,-86 1844.24,-122"/>
<text text-anchor="middle" x="1745" y="-99.8" font-family="Times,serif" font-size="14.00">RegisterCollaboratorComponent</text>
</g>
<!-- RegisterCollaboratorComponent&#45;&gt;AppModule -->
<g id="edge21" class="edge">
<title>RegisterCollaboratorComponent&#45;&gt;AppModule</title>
<path fill="none" stroke="black" d="M1745,-122.02C1745,-139.37 1745,-163 1745,-163 1745,-163 2755.04,-163 2755.04,-163"/>
<polygon fill="black" stroke="black" points="2755.04,-166.5 2765.04,-163 2755.04,-159.5 2755.04,-166.5"/>
</g>
<!-- RegisterComponent -->
<g id="node22" class="node">
<title>RegisterComponent</title>
<polygon fill="#ffffb3" stroke="black" points="1627.98,-122 1500.02,-122 1500.02,-86 1627.98,-86 1627.98,-122"/>
<text text-anchor="middle" x="1564" y="-99.8" font-family="Times,serif" font-size="14.00">RegisterComponent</text>
</g>
<!-- RegisterComponent&#45;&gt;AppModule -->
<g id="edge22" class="edge">
<title>RegisterComponent&#45;&gt;AppModule</title>
<path fill="none" stroke="black" d="M1564,-122.3C1564,-140.27 1564,-165 1564,-165 1564,-165 2755.29,-165 2755.29,-165"/>
<polygon fill="black" stroke="black" points="2755.29,-168.5 2765.29,-165 2755.29,-161.5 2755.29,-168.5"/>
</g>
<!-- RequestDetailsComponent -->
<g id="node23" class="node">
<title>RequestDetailsComponent</title>
<polygon fill="#ffffb3" stroke="black" points="1482.09,-122 1315.91,-122 1315.91,-86 1482.09,-86 1482.09,-122"/>
<text text-anchor="middle" x="1399" y="-99.8" font-family="Times,serif" font-size="14.00">RequestDetailsComponent</text>
</g>
<!-- RequestDetailsComponent&#45;&gt;AppModule -->
<g id="edge23" class="edge">
<title>RequestDetailsComponent&#45;&gt;AppModule</title>
<path fill="none" stroke="black" d="M1399,-122.22C1399,-140.83 1399,-167 1399,-167 1399,-167 2755.24,-167 2755.24,-167"/>
<polygon fill="black" stroke="black" points="2755.24,-170.5 2765.24,-167 2755.24,-163.5 2755.24,-170.5"/>
</g>
<!-- ResetPasswordComponent -->
<g id="node24" class="node">
<title>ResetPasswordComponent</title>
<polygon fill="#ffffb3" stroke="black" points="1298.09,-122 1131.91,-122 1131.91,-86 1298.09,-86 1298.09,-122"/>
<text text-anchor="middle" x="1215" y="-99.8" font-family="Times,serif" font-size="14.00">ResetPasswordComponent</text>
</g>
<!-- ResetPasswordComponent&#45;&gt;AppModule -->
<g id="edge24" class="edge">
<title>ResetPasswordComponent&#45;&gt;AppModule</title>
<path fill="none" stroke="black" d="M1215,-122.11C1215,-141.34 1215,-169 1215,-169 1215,-169 2755.24,-169 2755.24,-169"/>
<polygon fill="black" stroke="black" points="2755.24,-172.5 2765.24,-169 2755.24,-165.5 2755.24,-172.5"/>
</g>
<!-- SidebarComponent -->
<g id="node25" class="node">
<title>SidebarComponent</title>
<polygon fill="#ffffb3" stroke="black" points="1114.1,-122 989.9,-122 989.9,-86 1114.1,-86 1114.1,-122"/>
<text text-anchor="middle" x="1052" y="-99.8" font-family="Times,serif" font-size="14.00">SidebarComponent</text>
</g>
<!-- SidebarComponent&#45;&gt;AppModule -->
<g id="edge25" class="edge">
<title>SidebarComponent&#45;&gt;AppModule</title>
<path fill="none" stroke="black" d="M1052,-122.31C1052,-142.15 1052,-171 1052,-171 1052,-171 2754.92,-171 2754.92,-171"/>
<polygon fill="black" stroke="black" points="2754.92,-174.5 2764.92,-171 2754.92,-167.5 2754.92,-174.5"/>
</g>
<!-- SignpostComponent -->
<g id="node26" class="node">
<title>SignpostComponent</title>
<polygon fill="#ffffb3" stroke="black" points="972.34,-122 841.66,-122 841.66,-86 972.34,-86 972.34,-122"/>
<text text-anchor="middle" x="907" y="-99.8" font-family="Times,serif" font-size="14.00">SignpostComponent</text>
</g>
<!-- SignpostComponent&#45;&gt;AppModule -->
<g id="edge26" class="edge">
<title>SignpostComponent&#45;&gt;AppModule</title>
<path fill="none" stroke="black" d="M907,-122.13C907,-142.57 907,-173 907,-173 907,-173 2755.1,-173 2755.1,-173"/>
<polygon fill="black" stroke="black" points="2755.1,-176.5 2765.1,-173 2755.1,-169.5 2755.1,-176.5"/>
</g>
<!-- SignpostRequestComponent -->
<g id="node27" class="node">
<title>SignpostRequestComponent</title>
<polygon fill="#ffffb3" stroke="black" points="823.94,-122 648.06,-122 648.06,-86 823.94,-86 823.94,-122"/>
<text text-anchor="middle" x="736" y="-99.8" font-family="Times,serif" font-size="14.00">SignpostRequestComponent</text>
</g>
<!-- SignpostRequestComponent&#45;&gt;AppModule -->
<g id="edge27" class="edge">
<title>SignpostRequestComponent&#45;&gt;AppModule</title>
<path fill="none" stroke="black" d="M736,-122.28C736,-143.32 736,-175 736,-175 736,-175 2755.16,-175 2755.16,-175"/>
<polygon fill="black" stroke="black" points="2755.16,-178.5 2765.16,-175 2755.16,-171.5 2755.16,-178.5"/>
</g>
<!-- StickerComponent -->
<g id="node28" class="node">
<title>StickerComponent</title>
<polygon fill="#ffffb3" stroke="black" points="630.49,-122 509.51,-122 509.51,-86 630.49,-86 630.49,-122"/>
<text text-anchor="middle" x="570" y="-99.8" font-family="Times,serif" font-size="14.00">StickerComponent</text>
</g>
<!-- StickerComponent&#45;&gt;AppModule -->
<g id="edge28" class="edge">
<title>StickerComponent&#45;&gt;AppModule</title>
<path fill="none" stroke="black" d="M570,-122.04C570,-143.66 570,-177 570,-177 570,-177 2755.29,-177 2755.29,-177"/>
<polygon fill="black" stroke="black" points="2755.29,-180.5 2765.29,-177 2755.29,-173.5 2755.29,-180.5"/>
</g>
<!-- StickersRequestComponent -->
<g id="node29" class="node">
<title>StickersRequestComponent</title>
<polygon fill="#ffffb3" stroke="black" points="491.53,-122 320.47,-122 320.47,-86 491.53,-86 491.53,-122"/>
<text text-anchor="middle" x="406" y="-99.8" font-family="Times,serif" font-size="14.00">StickersRequestComponent</text>
</g>
<!-- StickersRequestComponent&#45;&gt;AppModule -->
<g id="edge29" class="edge">
<title>StickersRequestComponent&#45;&gt;AppModule</title>
<path fill="none" stroke="black" d="M406,-122.16C406,-144.35 406,-179 406,-179 406,-179 2755.33,-179 2755.33,-179"/>
<polygon fill="black" stroke="black" points="2755.33,-182.5 2765.33,-179 2755.33,-175.5 2755.33,-182.5"/>
</g>
<!-- UserDataComponent -->
<g id="node30" class="node">
<title>UserDataComponent</title>
<polygon fill="#ffffb3" stroke="black" points="302.19,-122 167.81,-122 167.81,-86 302.19,-86 302.19,-122"/>
<text text-anchor="middle" x="235" y="-99.8" font-family="Times,serif" font-size="14.00">UserDataComponent</text>
</g>
<!-- UserDataComponent&#45;&gt;AppModule -->
<g id="edge30" class="edge">
<title>UserDataComponent&#45;&gt;AppModule</title>
<path fill="none" stroke="black" d="M235,-122.25C235,-145.02 235,-181 235,-181 235,-181 2755.3,-181 2755.3,-181"/>
<polygon fill="black" stroke="black" points="2755.3,-184.5 2765.3,-181 2755.3,-177.5 2755.3,-184.5"/>
</g>
<!-- VersionComponent -->
<g id="node31" class="node">
<title>VersionComponent</title>
<polygon fill="#ffffb3" stroke="black" points="149.65,-122 24.35,-122 24.35,-86 149.65,-86 149.65,-122"/>
<text text-anchor="middle" x="87" y="-99.8" font-family="Times,serif" font-size="14.00">VersionComponent</text>
</g>
<!-- VersionComponent&#45;&gt;AppModule -->
<g id="edge31" class="edge">
<title>VersionComponent&#45;&gt;AppModule</title>
<path fill="none" stroke="black" d="M66.06,-122.38C66.06,-146.28 66.06,-185 66.06,-185 66.06,-185 2755.32,-185 2755.32,-185"/>
<polygon fill="black" stroke="black" points="2755.32,-188.5 2765.32,-185 2755.32,-181.5 2755.32,-188.5"/>
</g>
<!-- VersionComponent&#45;&gt;AppModule -->
<g id="edge32" class="edge">
<title>VersionComponent&#45;&gt;AppModule</title>
<path fill="none" stroke="black" d="M107.94,-122.32C107.94,-145.66 107.94,-183 107.94,-183 107.94,-183 2755.15,-183 2755.15,-183"/>
<polygon fill="black" stroke="black" points="2755.15,-186.5 2765.15,-183 2755.15,-179.5 2755.15,-186.5"/>
</g>
<!-- AppComponent  -->
<g id="node36" class="node">
<title>AppComponent </title>
<polygon fill="#80b1d3" stroke="black" points="2861.44,-252 2752.56,-252 2752.56,-216 2861.44,-216 2861.44,-252"/>
<text text-anchor="middle" x="2807" y="-229.8" font-family="Times,serif" font-size="14.00">AppComponent </text>
</g>
<!-- AppModule&#45;&gt;AppComponent  -->
<g id="edge36" class="edge">
<title>AppModule&#45;&gt;AppComponent </title>
<path fill="none" stroke="black" stroke-dasharray="1,5" d="M2807,-187.11C2807,-187.11 2807,-205.99 2807,-205.99"/>
<polygon fill="black" stroke="black" points="2803.5,-205.99 2807,-215.99 2810.5,-205.99 2803.5,-205.99"/>
</g>
<!-- AppRoutingModule -->
<g id="node33" class="node">
<title>AppRoutingModule</title>
<polygon fill="#8dd3c7" stroke="black" points="5749.27,-122 5746.27,-126 5725.27,-126 5722.27,-122 5620.73,-122 5620.73,-86 5749.27,-86 5749.27,-122"/>
<text text-anchor="middle" x="5685" y="-99.8" font-family="Times,serif" font-size="14.00">AppRoutingModule</text>
</g>
<!-- AppRoutingModule&#45;&gt;AppModule -->
<g id="edge33" class="edge">
<title>AppRoutingModule&#45;&gt;AppModule</title>
<path fill="none" stroke="black" d="M5685,-122.38C5685,-146.28 5685,-185 5685,-185 5685,-185 2858.79,-185 2858.79,-185"/>
<polygon fill="black" stroke="black" points="2858.79,-181.5 2848.79,-185 2858.79,-188.5 2858.79,-181.5"/>
</g>
<!-- MainCreateRequestRoutingModule -->
<g id="node34" class="node">
<title>MainCreateRequestRoutingModule</title>
<polygon fill="#8dd3c7" stroke="black" points="5602.85,-122 5599.85,-126 5578.85,-126 5575.85,-122 5387.15,-122 5387.15,-86 5602.85,-86 5602.85,-122"/>
<text text-anchor="middle" x="5495" y="-99.8" font-family="Times,serif" font-size="14.00">MainCreateRequestRoutingModule</text>
</g>
<!-- MainCreateRequestRoutingModule&#45;&gt;AppModule -->
<g id="edge34" class="edge">
<title>MainCreateRequestRoutingModule&#45;&gt;AppModule</title>
<path fill="none" stroke="black" d="M5495,-122.32C5495,-145.66 5495,-183 5495,-183 5495,-183 2858.68,-183 2858.68,-183"/>
<polygon fill="black" stroke="black" points="2858.68,-179.5 2848.68,-183 2858.68,-186.5 2858.68,-179.5"/>
</g>
<!-- ProfileRoutingModule -->
<g id="node35" class="node">
<title>ProfileRoutingModule</title>
<polygon fill="#8dd3c7" stroke="black" points="5369.27,-122 5366.27,-126 5345.27,-126 5342.27,-122 5226.73,-122 5226.73,-86 5369.27,-86 5369.27,-122"/>
<text text-anchor="middle" x="5298" y="-99.8" font-family="Times,serif" font-size="14.00">ProfileRoutingModule</text>
</g>
<!-- ProfileRoutingModule&#45;&gt;AppModule -->
<g id="edge35" class="edge">
<title>ProfileRoutingModule&#45;&gt;AppModule</title>
<path fill="none" stroke="black" d="M5298,-122.25C5298,-145.02 5298,-181 5298,-181 5298,-181 2858.67,-181 2858.67,-181"/>
<polygon fill="black" stroke="black" points="2858.67,-177.5 2848.67,-181 2858.67,-184.5 2858.67,-177.5"/>
</g>
</g>
</svg>
